<svg width="139" height="211" viewBox="0 0 139 211" fill="none" xmlns="http://www.w3.org/2000/svg">
<g opacity="0.2">
<path d="M132.86 204.95L69.17 87.23L5.47998 204.95H132.86Z" fill="#14B8A6"/>
<path d="M132.86 5.79999L69.17 123.51L5.47998 5.79999H132.86Z" fill="#14B8A6"/>
</g>
<path d="M80.84 75.3L71.52 92.52C71.2913 92.9441 70.9521 93.2983 70.5384 93.5453C70.1247 93.7922 69.6518 93.9226 69.17 93.9226C68.6882 93.9226 68.2154 93.7922 67.8017 93.5453C67.3879 93.2983 67.0487 92.9441 66.82 92.52L57.5 75.3C56.6598 73.7435 56.2384 71.9955 56.277 70.2271C56.3156 68.4587 56.8129 66.7307 57.7203 65.2124C58.6277 63.6941 59.9139 62.4375 61.453 61.5659C62.9921 60.6942 64.7312 60.2373 66.5 60.24H71.89C73.6546 60.246 75.3875 60.7091 76.9197 61.5843C78.4519 62.4595 79.7311 63.7169 80.6326 65.2338C81.5341 66.7507 82.027 68.4754 82.0634 70.2396C82.0997 72.0038 81.6782 73.7472 80.84 75.3Z" fill="#14B8A6"/>
<path d="M70.18 175.23L99.13 187.13C99.6949 187.368 100.161 187.793 100.449 188.335C100.737 188.876 100.831 189.499 100.713 190.101C100.596 190.703 100.275 191.246 99.8049 191.639C99.3344 192.032 98.743 192.251 98.13 192.26H40.26C39.647 192.251 39.0556 192.032 38.5852 191.639C38.1148 191.246 37.7939 190.703 37.6766 190.101C37.5593 189.499 37.6527 188.876 37.9411 188.335C38.2294 187.793 38.6951 187.368 39.26 187.13L68.13 175.23C68.4546 175.094 68.803 175.024 69.155 175.024C69.507 175.024 69.8554 175.094 70.18 175.23Z" fill="#14B8A6"/>
<path d="M69.17 152.59C71.219 152.59 72.88 150.929 72.88 148.88C72.88 146.831 71.219 145.17 69.17 145.17C67.121 145.17 65.46 146.831 65.46 148.88C65.46 150.929 67.121 152.59 69.17 152.59Z" fill="#14B8A6"/>
<path d="M69.17 112.04C70.2249 112.04 71.08 111.185 71.08 110.13C71.08 109.075 70.2249 108.22 69.17 108.22C68.1151 108.22 67.26 109.075 67.26 110.13C67.26 111.185 68.1151 112.04 69.17 112.04Z" fill="#14B8A6"/>
<path d="M69.17 130.77C70.3685 130.77 71.34 129.798 71.34 128.6C71.34 127.402 70.3685 126.43 69.17 126.43C67.9716 126.43 67 127.402 67 128.6C67 129.798 67.9716 130.77 69.17 130.77Z" fill="#14B8A6"/>
<path d="M132.54 199.14H5.8C4.26164 199.145 2.78795 199.759 1.7011 200.848C0.614241 201.937 0.00263417 203.412 0 204.95C0.00527152 206.487 0.618035 207.959 1.70461 209.045C2.79118 210.132 4.26337 210.745 5.8 210.75H132.54C134.077 210.745 135.549 210.132 136.635 209.045C137.722 207.959 138.335 206.487 138.34 204.95C138.337 203.412 137.726 201.937 136.639 200.848C135.552 199.759 134.078 199.145 132.54 199.14Z" fill="#14B8A6"/>
<path d="M132.54 0H5.8C4.26337 0.00527152 2.79118 0.618035 1.70461 1.70461C0.618035 2.79118 0.00527152 4.26337 0 5.8C0.00527152 7.33664 0.618035 8.80883 1.70461 9.8954C2.79118 10.982 4.26337 11.5947 5.8 11.6H132.54C134.077 11.5947 135.549 10.982 136.635 9.8954C137.722 8.80883 138.335 7.33664 138.34 5.8C138.335 4.26337 137.722 2.79118 136.635 1.70461C135.549 0.618035 134.077 0.00527152 132.54 0Z" fill="#14B8A6"/>
</svg>
