<svg width="230" height="227" viewBox="0 0 230 227" fill="none" xmlns="http://www.w3.org/2000/svg">
<path d="M12.93 2.61001H220.13C222.39 2.61001 224.557 3.50765 226.155 5.10546C227.752 6.70327 228.65 8.87036 228.65 11.13V226.13H4.38998V11.13C4.38998 10.0095 4.61102 8.89992 5.04044 7.86492C5.46986 6.82992 6.09924 5.88979 6.89252 5.09837C7.68579 4.30696 8.62739 3.6798 9.66339 3.25281C10.6994 2.82582 11.8094 2.60738 12.93 2.61001Z" fill="#263238"/>
<path d="M228.65 226.62H4.38998C4.25738 226.62 4.13021 226.567 4.03644 226.474C3.94267 226.38 3.88998 226.253 3.88998 226.12V11.12C3.88998 8.73305 4.8382 6.44386 6.52603 4.75603C8.21386 3.06821 10.503 2.12 12.89 2.12H220.13C222.517 2.12 224.806 3.06821 226.494 4.75603C228.182 6.44386 229.13 8.73305 229.13 11.12V226.12C229.13 226.249 229.08 226.373 228.991 226.467C228.901 226.56 228.779 226.615 228.65 226.62ZM4.88998 225.62H228.15V11.13C228.15 9.00826 227.307 6.97343 225.807 5.47314C224.307 3.97285 222.272 3.12999 220.15 3.12999H12.93C10.8083 3.12999 8.77342 3.97285 7.27313 5.47314C5.77284 6.97343 4.92999 9.00826 4.92999 11.13L4.88998 225.62Z" fill="#263238"/>
<path d="M9.01999 0.51001H216.24C218.494 0.509996 220.657 1.40352 222.254 2.99484C223.851 4.58617 224.752 6.74557 224.76 9.00001V224H0.5V9.00001C0.507938 6.74557 1.40906 4.58617 3.00601 2.99484C4.60296 1.40352 6.76553 0.509996 9.01999 0.51001Z" fill="white"/>
<path d="M224.76 224.51H0.5C0.367392 224.51 0.240222 224.457 0.146454 224.364C0.0526857 224.27 0 224.143 0 224.01V9C0 6.61305 0.948189 4.32387 2.63602 2.63604C4.32384 0.948212 6.61305 0 9 0H216.24C218.627 0 220.916 0.948212 222.604 2.63604C224.292 4.32387 225.24 6.61305 225.24 9V224C225.243 224.131 225.194 224.258 225.104 224.353C225.014 224.448 224.891 224.505 224.76 224.51ZM1 223.51H224.26V9C224.26 6.87827 223.417 4.84344 221.917 3.34315C220.417 1.84286 218.382 1 216.26 1H9.01999C6.89826 1 4.86342 1.84286 3.36313 3.34315C1.86284 4.84344 1.01999 6.87827 1.01999 9L1 223.51Z" fill="#263238"/>
<path d="M9.01999 0.51001H216.24C218.494 0.509996 220.657 1.40352 222.254 2.99484C223.851 4.58617 224.752 6.74557 224.76 9.00001V21.87H0.5V9.00001C0.507938 6.74557 1.40906 4.58617 3.00601 2.99484C4.60296 1.40352 6.76553 0.509996 9.01999 0.51001Z" fill="#14B8A6"/>
<path d="M224.76 22.37H0.5C0.367392 22.37 0.240222 22.3173 0.146454 22.2236C0.0526857 22.1298 0 22.0026 0 21.87V9C0 6.61305 0.948189 4.32387 2.63602 2.63604C4.32384 0.948212 6.61305 0 9 0H216.24C218.627 0 220.916 0.948212 222.604 2.63604C224.292 4.32387 225.24 6.61305 225.24 9V21.87C225.24 21.9992 225.19 22.1235 225.101 22.2167C225.011 22.3099 224.889 22.3648 224.76 22.37ZM1 21.37H224.26V9C224.26 6.87827 223.417 4.84344 221.917 3.34315C220.417 1.84286 218.382 1 216.26 1H9.01999C6.89826 1 4.86342 1.84286 3.36313 3.34315C1.86284 4.84344 1.01999 6.87827 1.01999 9L1 21.37Z" fill="#263238"/>
<path d="M185.21 15.35C187.132 15.35 188.69 13.792 188.69 11.87C188.69 9.94805 187.132 8.39 185.21 8.39C183.288 8.39 181.73 9.94805 181.73 11.87C181.73 13.792 183.288 15.35 185.21 15.35Z" fill="white"/>
<path d="M185.21 15.85C184.419 15.85 183.646 15.6154 182.988 15.1759C182.33 14.7364 181.817 14.1117 181.514 13.3807C181.212 12.6498 181.133 11.8456 181.287 11.0697C181.441 10.2937 181.822 9.581 182.382 9.02159C182.941 8.46218 183.654 8.08121 184.43 7.92687C185.206 7.77253 186.01 7.85174 186.741 8.15449C187.472 8.45724 188.096 8.96993 188.536 9.62773C188.975 10.2855 189.21 11.0589 189.21 11.85C189.21 12.9109 188.789 13.9283 188.038 14.6784C187.288 15.4286 186.271 15.85 185.21 15.85ZM185.21 8.85001C184.617 8.85001 184.037 9.02596 183.543 9.3556C183.05 9.68524 182.665 10.1538 182.438 10.702C182.211 11.2501 182.152 11.8533 182.268 12.4353C182.383 13.0172 182.669 13.5518 183.089 13.9713C183.508 14.3909 184.043 14.6766 184.625 14.7924C185.207 14.9081 185.81 14.8487 186.358 14.6216C186.906 14.3946 187.375 14.0101 187.704 13.5167C188.034 13.0234 188.21 12.4434 188.21 11.85C188.2 11.0613 187.879 10.3085 187.317 9.7545C186.756 9.20052 185.999 8.88994 185.21 8.89001V8.85001Z" fill="#263238"/>
<path d="M199.13 11.87C199.13 11.1817 198.926 10.5089 198.544 9.93661C198.161 9.36433 197.618 8.91829 196.982 8.6549C196.346 8.3915 195.646 8.32259 194.971 8.45687C194.296 8.59115 193.676 8.92258 193.189 9.40927C192.703 9.89596 192.371 10.516 192.237 11.1911C192.103 11.8661 192.171 12.5658 192.435 13.2017C192.698 13.8376 193.144 14.3811 193.717 14.7635C194.289 15.1459 194.962 15.35 195.65 15.35C196.573 15.35 197.458 14.9834 198.111 14.3307C198.763 13.6781 199.13 12.793 199.13 11.87Z" fill="white"/>
<path d="M195.65 15.85C194.859 15.85 194.086 15.6154 193.428 15.1759C192.77 14.7364 192.257 14.1117 191.954 13.3807C191.652 12.6498 191.573 11.8456 191.727 11.0697C191.881 10.2937 192.262 9.581 192.822 9.02159C193.381 8.46218 194.094 8.08121 194.87 7.92687C195.646 7.77253 196.45 7.85174 197.181 8.15449C197.912 8.45724 198.536 8.96993 198.976 9.62773C199.415 10.2855 199.65 11.0589 199.65 11.85C199.65 12.9109 199.229 13.9283 198.478 14.6784C197.728 15.4286 196.711 15.85 195.65 15.85ZM195.65 8.85001C195.057 8.85001 194.477 9.02596 193.983 9.3556C193.49 9.68524 193.105 10.1538 192.878 10.702C192.651 11.2501 192.592 11.8533 192.708 12.4353C192.823 13.0172 193.109 13.5518 193.529 13.9713C193.948 14.3909 194.483 14.6766 195.065 14.7924C195.647 14.9081 196.25 14.8487 196.798 14.6216C197.346 14.3946 197.815 14.0101 198.144 13.5167C198.474 13.0234 198.65 12.4434 198.65 11.85C198.639 11.0613 198.319 10.3085 197.757 9.7545C197.196 9.20052 196.439 8.88994 195.65 8.89001V8.85001Z" fill="#263238"/>
<path d="M206.1 15.35C208.022 15.35 209.58 13.792 209.58 11.87C209.58 9.94805 208.022 8.39 206.1 8.39C204.178 8.39 202.62 9.94805 202.62 11.87C202.62 13.792 204.178 15.35 206.1 15.35Z" fill="#263238"/>
<path d="M206.1 15.85C205.309 15.85 204.536 15.6154 203.878 15.1759C203.22 14.7364 202.707 14.1117 202.405 13.3807C202.102 12.6498 202.023 11.8456 202.177 11.0697C202.331 10.2937 202.712 9.581 203.272 9.02159C203.831 8.46218 204.544 8.08121 205.32 7.92687C206.096 7.77253 206.9 7.85174 207.631 8.15449C208.362 8.45724 208.986 8.96993 209.426 9.62773C209.865 10.2855 210.1 11.0589 210.1 11.85C210.1 12.9109 209.679 13.9283 208.928 14.6784C208.178 15.4286 207.161 15.85 206.1 15.85ZM206.1 8.85001C205.507 8.85001 204.927 9.02596 204.433 9.3556C203.94 9.68524 203.555 10.1538 203.328 10.702C203.101 11.2501 203.042 11.8533 203.158 12.4353C203.273 13.0172 203.559 13.5518 203.979 13.9713C204.398 14.3909 204.933 14.6766 205.515 14.7924C206.097 14.9081 206.7 14.8487 207.248 14.6216C207.796 14.3946 208.265 14.0101 208.594 13.5167C208.924 13.0234 209.1 12.4434 209.1 11.85C209.089 11.0613 208.769 10.3085 208.207 9.7545C207.646 9.20052 206.889 8.88994 206.1 8.89001V8.85001Z" fill="#263238"/>
<path d="M40 36.14H23.51C23.1122 36.14 22.7306 35.982 22.4493 35.7007C22.168 35.4194 22.01 35.0378 22.01 34.64C22.01 34.2422 22.168 33.8606 22.4493 33.5793C22.7306 33.298 23.1122 33.14 23.51 33.14H40C40.3978 33.14 40.7793 33.298 41.0606 33.5793C41.3419 33.8606 41.5 34.2422 41.5 34.64C41.5 35.0378 41.3419 35.4194 41.0606 35.7007C40.7793 35.982 40.3978 36.14 40 36.14Z" fill="#263238"/>
<path d="M85.46 45.83H23.51C23.1122 45.83 22.7306 45.672 22.4493 45.3907C22.168 45.1094 22.01 44.7278 22.01 44.33C22.01 43.9322 22.168 43.5506 22.4493 43.2693C22.7306 42.988 23.1122 42.83 23.51 42.83H85.46C85.8578 42.83 86.2394 42.988 86.5207 43.2693C86.802 43.5506 86.96 43.9322 86.96 44.33C86.96 44.7278 86.802 45.1094 86.5207 45.3907C86.2394 45.672 85.8578 45.83 85.46 45.83Z" fill="#C4C4C4"/>
<path d="M181.28 45.83H119.28C118.882 45.83 118.501 45.672 118.219 45.3907C117.938 45.1094 117.78 44.7278 117.78 44.33C117.78 43.9322 117.938 43.5506 118.219 43.2693C118.501 42.988 118.882 42.83 119.28 42.83H181.28C181.678 42.83 182.059 42.988 182.341 43.2693C182.622 43.5506 182.78 43.9322 182.78 44.33C182.78 44.7278 182.622 45.1094 182.341 45.3907C182.059 45.672 181.678 45.83 181.28 45.83Z" fill="#C4C4C4"/>
<path d="M113.98 45.83H89.47C89.0721 45.83 88.6907 45.672 88.4094 45.3907C88.1281 45.1094 87.97 44.7278 87.97 44.33C87.97 43.9322 88.1281 43.5506 88.4094 43.2693C88.6907 42.988 89.0721 42.83 89.47 42.83H113.98C114.378 42.83 114.759 42.988 115.041 43.2693C115.322 43.5506 115.48 43.9322 115.48 44.33C115.48 44.7278 115.322 45.1094 115.041 45.3907C114.759 45.672 114.378 45.83 113.98 45.83Z" fill="#263238"/>
<path d="M59.16 55.51H23.51C23.1122 55.51 22.7306 55.352 22.4493 55.0707C22.168 54.7894 22.01 54.4078 22.01 54.01C22.01 53.6122 22.168 53.2307 22.4493 52.9493C22.7306 52.668 23.1122 52.51 23.51 52.51H59.16C59.5578 52.51 59.9393 52.668 60.2206 52.9493C60.5019 53.2307 60.66 53.6122 60.66 54.01C60.66 54.4078 60.5019 54.7894 60.2206 55.0707C59.9393 55.352 59.5578 55.51 59.16 55.51Z" fill="#263238"/>
<path d="M99.27 55.51H63.62C63.2222 55.51 62.8406 55.352 62.5593 55.0707C62.278 54.7894 62.12 54.4078 62.12 54.01C62.12 53.6122 62.278 53.2307 62.5593 52.9493C62.8406 52.668 63.2222 52.51 63.62 52.51H99.27C99.6678 52.51 100.049 52.668 100.331 52.9493C100.612 53.2307 100.77 53.6122 100.77 54.01C100.77 54.4078 100.612 54.7894 100.331 55.0707C100.049 55.352 99.6678 55.51 99.27 55.51Z" fill="#263238"/>
<path d="M139.39 55.51H103.73C103.332 55.51 102.951 55.352 102.669 55.0707C102.388 54.7894 102.23 54.4078 102.23 54.01C102.23 53.6122 102.388 53.2307 102.669 52.9493C102.951 52.668 103.332 52.51 103.73 52.51H139.39C139.788 52.51 140.169 52.668 140.451 52.9493C140.732 53.2307 140.89 53.6122 140.89 54.01C140.89 54.4078 140.732 54.7894 140.451 55.0707C140.169 55.352 139.788 55.51 139.39 55.51Z" fill="#263238"/>
<path d="M159 55.51H143.84C143.442 55.51 143.061 55.352 142.779 55.0707C142.498 54.7894 142.34 54.4078 142.34 54.01C142.34 53.6122 142.498 53.2307 142.779 52.9493C143.061 52.668 143.442 52.51 143.84 52.51H159C159.398 52.51 159.779 52.668 160.061 52.9493C160.342 53.2307 160.5 53.6122 160.5 54.01C160.5 54.4078 160.342 54.7894 160.061 55.0707C159.779 55.352 159.398 55.51 159 55.51Z" fill="#263238"/>
<path d="M60.93 36.14H44.45C44.0522 36.14 43.6706 35.982 43.3893 35.7007C43.108 35.4194 42.95 35.0378 42.95 34.64C42.95 34.2422 43.108 33.8606 43.3893 33.5793C43.6706 33.298 44.0522 33.14 44.45 33.14H60.93C61.3278 33.14 61.7094 33.298 61.9907 33.5793C62.272 33.8606 62.43 34.2422 62.43 34.64C62.43 35.0378 62.272 35.4194 61.9907 35.7007C61.7094 35.982 61.3278 36.14 60.93 36.14Z" fill="#263238"/>
<path d="M159 36.14H142.5C142.102 36.14 141.721 35.982 141.439 35.7007C141.158 35.4194 141 35.0378 141 34.64C141 34.2422 141.158 33.8606 141.439 33.5793C141.721 33.298 142.102 33.14 142.5 33.14H159C159.398 33.14 159.779 33.298 160.061 33.5793C160.342 33.8606 160.5 34.2422 160.5 34.64C160.5 35.0378 160.342 35.4194 160.061 35.7007C159.779 35.982 159.398 36.14 159 36.14Z" fill="#263238"/>
<path d="M137.16 36.14H120.67C120.272 36.14 119.891 35.982 119.609 35.7007C119.328 35.4194 119.17 35.0378 119.17 34.64C119.17 34.2422 119.328 33.8606 119.609 33.5793C119.891 33.298 120.272 33.14 120.67 33.14H137.16C137.558 33.14 137.939 33.298 138.221 33.5793C138.502 33.8606 138.66 34.2422 138.66 34.64C138.66 35.0378 138.502 35.4194 138.221 35.7007C137.939 35.982 137.558 36.14 137.16 36.14Z" fill="#C4C4C4"/>
<path d="M113.54 36.14H65.4C65.0022 36.14 64.6206 35.982 64.3393 35.7007C64.058 35.4194 63.9 35.0378 63.9 34.64C63.9 34.2422 64.058 33.8606 64.3393 33.5793C64.6206 33.298 65.0022 33.14 65.4 33.14H113.54C113.938 33.14 114.319 33.298 114.601 33.5793C114.882 33.8606 115.04 34.2422 115.04 34.64C115.04 35.0378 114.882 35.4194 114.601 35.7007C114.319 35.982 113.938 36.14 113.54 36.14Z" fill="#263238"/>
<path d="M40 95.28H23.51C23.1122 95.28 22.7306 95.122 22.4493 94.8407C22.168 94.5594 22.01 94.1778 22.01 93.78C22.01 93.3822 22.168 93.0006 22.4493 92.7193C22.7306 92.438 23.1122 92.28 23.51 92.28H40C40.3978 92.28 40.7793 92.438 41.0606 92.7193C41.3419 93.0006 41.5 93.3822 41.5 93.78C41.5 94.1778 41.3419 94.5594 41.0606 94.8407C40.7793 95.122 40.3978 95.28 40 95.28Z" fill="#263238"/>
<path d="M85.46 105H23.51C23.1122 105 22.7306 104.842 22.4493 104.561C22.168 104.279 22.01 103.898 22.01 103.5C22.01 103.102 22.168 102.721 22.4493 102.439C22.7306 102.158 23.1122 102 23.51 102H85.46C85.8578 102 86.2394 102.158 86.5207 102.439C86.802 102.721 86.96 103.102 86.96 103.5C86.96 103.898 86.802 104.279 86.5207 104.561C86.2394 104.842 85.8578 105 85.46 105Z" fill="#C4C4C4"/>
<path d="M181.28 105H119.28C118.882 105 118.501 104.842 118.219 104.561C117.938 104.279 117.78 103.898 117.78 103.5C117.78 103.102 117.938 102.721 118.219 102.439C118.501 102.158 118.882 102 119.28 102H181.28C181.678 102 182.059 102.158 182.341 102.439C182.622 102.721 182.78 103.102 182.78 103.5C182.78 103.898 182.622 104.279 182.341 104.561C182.059 104.842 181.678 105 181.28 105Z" fill="#263238"/>
<path d="M113.98 105H89.47C89.0721 105 88.6907 104.842 88.4094 104.561C88.1281 104.279 87.97 103.898 87.97 103.5C87.97 103.102 88.1281 102.721 88.4094 102.439C88.6907 102.158 89.0721 102 89.47 102H113.98C114.378 102 114.759 102.158 115.041 102.439C115.322 102.721 115.48 103.102 115.48 103.5C115.48 103.898 115.322 104.279 115.041 104.561C114.759 104.842 114.378 105 113.98 105Z" fill="#263238"/>
<path d="M59.16 114.65H23.51C23.1122 114.65 22.7306 114.492 22.4493 114.211C22.168 113.929 22.01 113.548 22.01 113.15C22.01 112.752 22.168 112.371 22.4493 112.089C22.7306 111.808 23.1122 111.65 23.51 111.65H59.16C59.5578 111.65 59.9393 111.808 60.2206 112.089C60.5019 112.371 60.66 112.752 60.66 113.15C60.66 113.548 60.5019 113.929 60.2206 114.211C59.9393 114.492 59.5578 114.65 59.16 114.65Z" fill="#263238"/>
<path d="M99.27 114.65H63.62C63.2222 114.65 62.8406 114.492 62.5593 114.211C62.278 113.929 62.12 113.548 62.12 113.15C62.12 112.752 62.278 112.371 62.5593 112.089C62.8406 111.808 63.2222 111.65 63.62 111.65H99.27C99.6678 111.65 100.049 111.808 100.331 112.089C100.612 112.371 100.77 112.752 100.77 113.15C100.77 113.548 100.612 113.929 100.331 114.211C100.049 114.492 99.6678 114.65 99.27 114.65Z" fill="#263238"/>
<path d="M139.39 114.65H103.73C103.332 114.65 102.951 114.492 102.669 114.211C102.388 113.929 102.23 113.548 102.23 113.15C102.23 112.752 102.388 112.371 102.669 112.089C102.951 111.808 103.332 111.65 103.73 111.65H139.39C139.788 111.65 140.169 111.808 140.451 112.089C140.732 112.371 140.89 112.752 140.89 113.15C140.89 113.548 140.732 113.929 140.451 114.211C140.169 114.492 139.788 114.65 139.39 114.65Z" fill="#C4C4C4"/>
<path d="M159 114.65H143.84C143.442 114.65 143.061 114.492 142.779 114.211C142.498 113.929 142.34 113.548 142.34 113.15C142.34 112.752 142.498 112.371 142.779 112.089C143.061 111.808 143.442 111.65 143.84 111.65H159C159.398 111.65 159.779 111.808 160.061 112.089C160.342 112.371 160.5 112.752 160.5 113.15C160.5 113.548 160.342 113.929 160.061 114.211C159.779 114.492 159.398 114.65 159 114.65Z" fill="#263238"/>
<path d="M60.93 95.28H44.45C44.0522 95.28 43.6706 95.122 43.3893 94.8407C43.108 94.5594 42.95 94.1778 42.95 93.78C42.95 93.3822 43.108 93.0006 43.3893 92.7193C43.6706 92.438 44.0522 92.28 44.45 92.28H60.93C61.3278 92.28 61.7094 92.438 61.9907 92.7193C62.272 93.0006 62.43 93.3822 62.43 93.78C62.43 94.1778 62.272 94.5594 61.9907 94.8407C61.7094 95.122 61.3278 95.28 60.93 95.28Z" fill="#263238"/>
<path d="M159 95.28H142.5C142.102 95.28 141.721 95.122 141.439 94.8407C141.158 94.5594 141 94.1778 141 93.78C141 93.3822 141.158 93.0006 141.439 92.7193C141.721 92.438 142.102 92.28 142.5 92.28H159C159.398 92.28 159.779 92.438 160.061 92.7193C160.342 93.0006 160.5 93.3822 160.5 93.78C160.5 94.1778 160.342 94.5594 160.061 94.8407C159.779 95.122 159.398 95.28 159 95.28Z" fill="#263238"/>
<path d="M137.16 95.28H120.67C120.272 95.28 119.891 95.122 119.609 94.8407C119.328 94.5594 119.17 94.1778 119.17 93.78C119.17 93.3822 119.328 93.0006 119.609 92.7193C119.891 92.438 120.272 92.28 120.67 92.28H137.16C137.558 92.28 137.939 92.438 138.221 92.7193C138.502 93.0006 138.66 93.3822 138.66 93.78C138.66 94.1778 138.502 94.5594 138.221 94.8407C137.939 95.122 137.558 95.28 137.16 95.28Z" fill="#C4C4C4"/>
<path d="M113.54 95.28H65.4C65.0022 95.28 64.6206 95.122 64.3393 94.8407C64.058 94.5594 63.9 94.1778 63.9 93.78C63.9 93.3822 64.058 93.0006 64.3393 92.7193C64.6206 92.438 65.0022 92.28 65.4 92.28H113.54C113.938 92.28 114.319 92.438 114.601 92.7193C114.882 93.0006 115.04 93.3822 115.04 93.78C115.04 94.1778 114.882 94.5594 114.601 94.8407C114.319 95.122 113.938 95.28 113.54 95.28Z" fill="#263238"/>
<path d="M40 182.46H23.51C23.1122 182.46 22.7306 182.302 22.4493 182.021C22.168 181.739 22.01 181.358 22.01 180.96C22.01 180.562 22.168 180.181 22.4493 179.899C22.7306 179.618 23.1122 179.46 23.51 179.46H40C40.3978 179.46 40.7793 179.618 41.0606 179.899C41.3419 180.181 41.5 180.562 41.5 180.96C41.5 181.358 41.3419 181.739 41.0606 182.021C40.7793 182.302 40.3978 182.46 40 182.46Z" fill="#263238"/>
<path d="M85.46 192.15H23.51C23.1122 192.15 22.7306 191.992 22.4493 191.711C22.168 191.429 22.01 191.048 22.01 190.65C22.01 190.252 22.168 189.871 22.4493 189.589C22.7306 189.308 23.1122 189.15 23.51 189.15H85.46C85.8578 189.15 86.2394 189.308 86.5207 189.589C86.802 189.871 86.96 190.252 86.96 190.65C86.96 191.048 86.802 191.429 86.5207 191.711C86.2394 191.992 85.8578 192.15 85.46 192.15Z" fill="#C4C4C4"/>
<path d="M181.28 192.15H119.28C118.882 192.15 118.501 191.992 118.219 191.711C117.938 191.429 117.78 191.048 117.78 190.65C117.78 190.252 117.938 189.871 118.219 189.589C118.501 189.308 118.882 189.15 119.28 189.15H181.28C181.678 189.15 182.059 189.308 182.341 189.589C182.622 189.871 182.78 190.252 182.78 190.65C182.78 191.048 182.622 191.429 182.341 191.711C182.059 191.992 181.678 192.15 181.28 192.15Z" fill="#263238"/>
<path d="M113.98 192.15H89.47C89.0721 192.15 88.6907 191.992 88.4094 191.711C88.1281 191.429 87.97 191.048 87.97 190.65C87.97 190.252 88.1281 189.871 88.4094 189.589C88.6907 189.308 89.0721 189.15 89.47 189.15H113.98C114.378 189.15 114.759 189.308 115.041 189.589C115.322 189.871 115.48 190.252 115.48 190.65C115.48 191.048 115.322 191.429 115.041 191.711C114.759 191.992 114.378 192.15 113.98 192.15Z" fill="#263238"/>
<path d="M59.16 201.83H23.51C23.1122 201.83 22.7306 201.672 22.4493 201.391C22.168 201.109 22.01 200.728 22.01 200.33C22.01 199.932 22.168 199.551 22.4493 199.269C22.7306 198.988 23.1122 198.83 23.51 198.83H59.16C59.5578 198.83 59.9393 198.988 60.2206 199.269C60.5019 199.551 60.66 199.932 60.66 200.33C60.66 200.728 60.5019 201.109 60.2206 201.391C59.9393 201.672 59.5578 201.83 59.16 201.83Z" fill="#263238"/>
<path d="M99.27 201.83H63.62C63.2222 201.83 62.8406 201.672 62.5593 201.391C62.278 201.109 62.12 200.728 62.12 200.33C62.12 199.932 62.278 199.551 62.5593 199.269C62.8406 198.988 63.2222 198.83 63.62 198.83H99.27C99.6678 198.83 100.049 198.988 100.331 199.269C100.612 199.551 100.77 199.932 100.77 200.33C100.77 200.728 100.612 201.109 100.331 201.391C100.049 201.672 99.6678 201.83 99.27 201.83Z" fill="#263238"/>
<path d="M139.39 201.83H103.73C103.332 201.83 102.951 201.672 102.669 201.391C102.388 201.109 102.23 200.728 102.23 200.33C102.23 199.932 102.388 199.551 102.669 199.269C102.951 198.988 103.332 198.83 103.73 198.83H139.39C139.788 198.83 140.169 198.988 140.451 199.269C140.732 199.551 140.89 199.932 140.89 200.33C140.89 200.728 140.732 201.109 140.451 201.391C140.169 201.672 139.788 201.83 139.39 201.83Z" fill="#C4C4C4"/>
<path d="M159 201.83H143.84C143.442 201.83 143.061 201.672 142.779 201.391C142.498 201.109 142.34 200.728 142.34 200.33C142.34 199.932 142.498 199.551 142.779 199.269C143.061 198.988 143.442 198.83 143.84 198.83H159C159.398 198.83 159.779 198.988 160.061 199.269C160.342 199.551 160.5 199.932 160.5 200.33C160.5 200.728 160.342 201.109 160.061 201.391C159.779 201.672 159.398 201.83 159 201.83Z" fill="#263238"/>
<path d="M60.93 182.46H44.45C44.0522 182.46 43.6706 182.302 43.3893 182.021C43.108 181.739 42.95 181.358 42.95 180.96C42.95 180.562 43.108 180.181 43.3893 179.899C43.6706 179.618 44.0522 179.46 44.45 179.46H60.93C61.3278 179.46 61.7094 179.618 61.9907 179.899C62.272 180.181 62.43 180.562 62.43 180.96C62.43 181.358 62.272 181.739 61.9907 182.021C61.7094 182.302 61.3278 182.46 60.93 182.46Z" fill="#263238"/>
<path d="M159 182.46H142.5C142.102 182.46 141.721 182.302 141.439 182.021C141.158 181.739 141 181.358 141 180.96C141 180.562 141.158 180.181 141.439 179.899C141.721 179.618 142.102 179.46 142.5 179.46H159C159.398 179.46 159.779 179.618 160.061 179.899C160.342 180.181 160.5 180.562 160.5 180.96C160.5 181.358 160.342 181.739 160.061 182.021C159.779 182.302 159.398 182.46 159 182.46Z" fill="#263238"/>
<path d="M137.16 182.46H120.67C120.272 182.46 119.891 182.302 119.609 182.021C119.328 181.739 119.17 181.358 119.17 180.96C119.17 180.562 119.328 180.181 119.609 179.899C119.891 179.618 120.272 179.46 120.67 179.46H137.16C137.558 179.46 137.939 179.618 138.221 179.899C138.502 180.181 138.66 180.562 138.66 180.96C138.66 181.358 138.502 181.739 138.221 182.021C137.939 182.302 137.558 182.46 137.16 182.46Z" fill="#C4C4C4"/>
<path d="M113.54 182.46H65.4C65.0022 182.46 64.6206 182.302 64.3393 182.021C64.058 181.739 63.9 181.358 63.9 180.96C63.9 180.562 64.058 180.181 64.3393 179.899C64.6206 179.618 65.0022 179.46 65.4 179.46H113.54C113.938 179.46 114.319 179.618 114.601 179.899C114.882 180.181 115.04 180.562 115.04 180.96C115.04 181.358 114.882 181.739 114.601 182.021C114.319 182.302 113.938 182.46 113.54 182.46Z" fill="#263238"/>
<path d="M132.7 65.71H116.21C115.812 65.71 115.431 65.552 115.149 65.2707C114.868 64.9894 114.71 64.6078 114.71 64.21C114.71 63.8122 114.868 63.4306 115.149 63.1493C115.431 62.868 115.812 62.71 116.21 62.71H132.7C133.098 62.71 133.479 62.868 133.761 63.1493C134.042 63.4306 134.2 63.8122 134.2 64.21C134.2 64.6078 134.042 64.9894 133.761 65.2707C133.479 65.552 133.098 65.71 132.7 65.71Z" fill="#263238"/>
<path d="M110.86 65.71H94.37C93.9722 65.71 93.5906 65.552 93.3093 65.2707C93.028 64.9894 92.87 64.6078 92.87 64.21C92.87 63.8122 93.028 63.4306 93.3093 63.1493C93.5906 62.868 93.9722 62.71 94.37 62.71H110.86C111.258 62.71 111.639 62.868 111.921 63.1493C112.202 63.4306 112.36 63.8122 112.36 64.21C112.36 64.6078 112.202 64.9894 111.921 65.2707C111.639 65.552 111.258 65.71 110.86 65.71Z" fill="#263238"/>
<path d="M87.24 65.71H39.11C38.7122 65.71 38.3307 65.552 38.0493 65.2707C37.768 64.9894 37.61 64.6078 37.61 64.21C37.61 63.8122 37.768 63.4306 38.0493 63.1493C38.3307 62.868 38.7122 62.71 39.11 62.71H87.24C87.6378 62.71 88.0194 62.868 88.3007 63.1493C88.582 63.4306 88.74 63.8122 88.74 64.21C88.74 64.6078 88.582 64.9894 88.3007 65.2707C88.0194 65.552 87.6378 65.71 87.24 65.71Z" fill="#263238"/>
<path d="M132.7 83H116.21C115.812 83 115.431 82.842 115.149 82.5607C114.868 82.2793 114.71 81.8978 114.71 81.5C114.71 81.1022 114.868 80.7207 115.149 80.4393C115.431 80.158 115.812 80 116.21 80H132.7C133.098 80 133.479 80.158 133.761 80.4393C134.042 80.7207 134.2 81.1022 134.2 81.5C134.2 81.8978 134.042 82.2793 133.761 82.5607C133.479 82.842 133.098 83 132.7 83Z" fill="#263238"/>
<path d="M110.86 83H94.37C93.9722 83 93.5906 82.842 93.3093 82.5607C93.028 82.2793 92.87 81.8978 92.87 81.5C92.87 81.1022 93.028 80.7207 93.3093 80.4393C93.5906 80.158 93.9722 80 94.37 80H110.86C111.258 80 111.639 80.158 111.921 80.4393C112.202 80.7207 112.36 81.1022 112.36 81.5C112.36 81.8978 112.202 82.2793 111.921 82.5607C111.639 82.842 111.258 83 110.86 83Z" fill="#263238"/>
<path d="M87.24 83H39.11C38.7122 83 38.3307 82.842 38.0493 82.5607C37.768 82.2793 37.61 81.8978 37.61 81.5C37.61 81.1022 37.768 80.7207 38.0493 80.4393C38.3307 80.158 38.7122 80 39.11 80H87.24C87.6378 80 88.0194 80.158 88.3007 80.4393C88.582 80.7207 88.74 81.1022 88.74 81.5C88.74 81.8978 88.582 82.2793 88.3007 82.5607C88.0194 82.842 87.6378 83 87.24 83Z" fill="#C4C4C4"/>
<path d="M55.6 74.38H39.11C38.7122 74.38 38.3307 74.222 38.0493 73.9407C37.768 73.6594 37.61 73.2778 37.61 72.88C37.61 72.4822 37.768 72.1006 38.0493 71.8193C38.3307 71.538 38.7122 71.38 39.11 71.38H55.6C55.9978 71.38 56.3793 71.538 56.6606 71.8193C56.9419 72.1006 57.1 72.4822 57.1 72.88C57.1 73.2778 56.9419 73.6594 56.6606 73.9407C56.3793 74.222 55.9978 74.38 55.6 74.38Z" fill="#263238"/>
<path d="M77.44 74.38H60.93C60.5322 74.38 60.1506 74.222 59.8693 73.9407C59.588 73.6594 59.43 73.2778 59.43 72.88C59.43 72.4822 59.588 72.1006 59.8693 71.8193C60.1506 71.538 60.5322 71.38 60.93 71.38H77.43C77.8278 71.38 78.2094 71.538 78.4907 71.8193C78.772 72.1006 78.93 72.4822 78.93 72.88C78.93 73.2778 78.772 73.6594 78.4907 73.9407C78.2094 74.222 77.8278 74.38 77.43 74.38H77.44Z" fill="#263238"/>
<path d="M132.7 74.38H84.57C84.1722 74.38 83.7906 74.222 83.5093 73.9407C83.228 73.6594 83.07 73.2778 83.07 72.88C83.07 72.4822 83.228 72.1006 83.5093 71.8193C83.7906 71.538 84.1722 71.38 84.57 71.38H132.7C133.098 71.38 133.479 71.538 133.761 71.8193C134.042 72.1006 134.2 72.4822 134.2 72.88C134.2 73.2778 134.042 73.6594 133.761 73.9407C133.479 74.222 133.098 74.38 132.7 74.38Z" fill="#C4C4C4"/>
<path d="M132.7 126.38H116.21C115.812 126.38 115.431 126.222 115.149 125.941C114.868 125.659 114.71 125.278 114.71 124.88C114.71 124.482 114.868 124.101 115.149 123.819C115.431 123.538 115.812 123.38 116.21 123.38H132.7C133.098 123.38 133.479 123.538 133.761 123.819C134.042 124.101 134.2 124.482 134.2 124.88C134.2 125.278 134.042 125.659 133.761 125.941C133.479 126.222 133.098 126.38 132.7 126.38Z" fill="#263238"/>
<path d="M110.86 126.38H94.37C93.9722 126.38 93.5906 126.222 93.3093 125.941C93.028 125.659 92.87 125.278 92.87 124.88C92.87 124.482 93.028 124.101 93.3093 123.819C93.5906 123.538 93.9722 123.38 94.37 123.38H110.86C111.258 123.38 111.639 123.538 111.921 123.819C112.202 124.101 112.36 124.482 112.36 124.88C112.36 125.278 112.202 125.659 111.921 125.941C111.639 126.222 111.258 126.38 110.86 126.38Z" fill="#263238"/>
<path d="M87.24 126.38H39.11C38.7122 126.38 38.3307 126.222 38.0493 125.941C37.768 125.659 37.61 125.278 37.61 124.88C37.61 124.482 37.768 124.101 38.0493 123.819C38.3307 123.538 38.7122 123.38 39.11 123.38H87.24C87.6378 123.38 88.0194 123.538 88.3007 123.819C88.582 124.101 88.74 124.482 88.74 124.88C88.74 125.278 88.582 125.659 88.3007 125.941C88.0194 126.222 87.6378 126.38 87.24 126.38Z" fill="#263238"/>
<path d="M132.7 143.71H116.21C115.812 143.71 115.431 143.552 115.149 143.271C114.868 142.989 114.71 142.608 114.71 142.21C114.71 141.812 114.868 141.431 115.149 141.149C115.431 140.868 115.812 140.71 116.21 140.71H132.7C133.098 140.71 133.479 140.868 133.761 141.149C134.042 141.431 134.2 141.812 134.2 142.21C134.2 142.608 134.042 142.989 133.761 143.271C133.479 143.552 133.098 143.71 132.7 143.71Z" fill="#263238"/>
<path d="M110.86 143.71H94.37C93.9722 143.71 93.5906 143.552 93.3093 143.271C93.028 142.989 92.87 142.608 92.87 142.21C92.87 141.812 93.028 141.431 93.3093 141.149C93.5906 140.868 93.9722 140.71 94.37 140.71H110.86C111.258 140.71 111.639 140.868 111.921 141.149C112.202 141.431 112.36 141.812 112.36 142.21C112.36 142.608 112.202 142.989 111.921 143.271C111.639 143.552 111.258 143.71 110.86 143.71Z" fill="#263238"/>
<path d="M87.24 143.71H39.11C38.7122 143.71 38.3307 143.552 38.0493 143.271C37.768 142.989 37.61 142.608 37.61 142.21C37.61 141.812 37.768 141.431 38.0493 141.149C38.3307 140.868 38.7122 140.71 39.11 140.71H87.24C87.6378 140.71 88.0194 140.868 88.3007 141.149C88.582 141.431 88.74 141.812 88.74 142.21C88.74 142.608 88.582 142.989 88.3007 143.271C88.0194 143.552 87.6378 143.71 87.24 143.71Z" fill="#C4C4C4"/>
<path d="M55.6 135.05H39.11C38.7122 135.05 38.3307 134.892 38.0493 134.611C37.768 134.329 37.61 133.948 37.61 133.55C37.61 133.152 37.768 132.771 38.0493 132.489C38.3307 132.208 38.7122 132.05 39.11 132.05H55.6C55.9978 132.05 56.3793 132.208 56.6606 132.489C56.9419 132.771 57.1 133.152 57.1 133.55C57.1 133.948 56.9419 134.329 56.6606 134.611C56.3793 134.892 55.9978 135.05 55.6 135.05Z" fill="#263238"/>
<path d="M77.44 135.05H60.93C60.5322 135.05 60.1506 134.892 59.8693 134.611C59.588 134.329 59.43 133.948 59.43 133.55C59.43 133.152 59.588 132.771 59.8693 132.489C60.1506 132.208 60.5322 132.05 60.93 132.05H77.43C77.8278 132.05 78.2094 132.208 78.4907 132.489C78.772 132.771 78.93 133.152 78.93 133.55C78.93 133.948 78.772 134.329 78.4907 134.611C78.2094 134.892 77.8278 135.05 77.43 135.05H77.44Z" fill="#263238"/>
<path d="M132.7 135.05H84.57C84.1722 135.05 83.7906 134.892 83.5093 134.611C83.228 134.329 83.07 133.948 83.07 133.55C83.07 133.152 83.228 132.771 83.5093 132.489C83.7906 132.208 84.1722 132.05 84.57 132.05H132.7C133.098 132.05 133.479 132.208 133.761 132.489C134.042 132.771 134.2 133.152 134.2 133.55C134.2 133.948 134.042 134.329 133.761 134.611C133.479 134.892 133.098 135.05 132.7 135.05Z" fill="#C4C4C4"/>
<path d="M55.6 153.91H39.11C38.7122 153.91 38.3307 153.752 38.0493 153.471C37.768 153.189 37.61 152.808 37.61 152.41C37.61 152.012 37.768 151.631 38.0493 151.349C38.3307 151.068 38.7122 150.91 39.11 150.91H55.6C55.9978 150.91 56.3793 151.068 56.6606 151.349C56.9419 151.631 57.1 152.012 57.1 152.41C57.1 152.808 56.9419 153.189 56.6606 153.471C56.3793 153.752 55.9978 153.91 55.6 153.91Z" fill="#263238"/>
<path d="M77.44 153.91H60.93C60.5322 153.91 60.1506 153.752 59.8693 153.471C59.588 153.189 59.43 152.808 59.43 152.41C59.43 152.012 59.588 151.631 59.8693 151.349C60.1506 151.068 60.5322 150.91 60.93 150.91H77.43C77.8278 150.91 78.2094 151.068 78.4907 151.349C78.772 151.631 78.93 152.012 78.93 152.41C78.93 152.808 78.772 153.189 78.4907 153.471C78.2094 153.752 77.8278 153.91 77.43 153.91H77.44Z" fill="#263238"/>
<path d="M132.7 153.91H84.57C84.1722 153.91 83.7906 153.752 83.5093 153.471C83.228 153.189 83.07 152.808 83.07 152.41C83.07 152.012 83.228 151.631 83.5093 151.349C83.7906 151.068 84.1722 150.91 84.57 150.91H132.7C133.098 150.91 133.479 151.068 133.761 151.349C134.042 151.631 134.2 152.012 134.2 152.41C134.2 152.808 134.042 153.189 133.761 153.471C133.479 153.752 133.098 153.91 132.7 153.91Z" fill="#C4C4C4"/>
<path d="M55.6 171.24H39.11C38.7122 171.24 38.3307 171.082 38.0493 170.801C37.768 170.519 37.61 170.138 37.61 169.74C37.61 169.342 37.768 168.961 38.0493 168.679C38.3307 168.398 38.7122 168.24 39.11 168.24H55.6C55.9978 168.24 56.3793 168.398 56.6606 168.679C56.9419 168.961 57.1 169.342 57.1 169.74C57.1 170.138 56.9419 170.519 56.6606 170.801C56.3793 171.082 55.9978 171.24 55.6 171.24Z" fill="#263238"/>
<path d="M77.44 171.24H60.93C60.5322 171.24 60.1506 171.082 59.8693 170.801C59.588 170.519 59.43 170.138 59.43 169.74C59.43 169.342 59.588 168.961 59.8693 168.679C60.1506 168.398 60.5322 168.24 60.93 168.24H77.43C77.8278 168.24 78.2094 168.398 78.4907 168.679C78.772 168.961 78.93 169.342 78.93 169.74C78.93 170.138 78.772 170.519 78.4907 170.801C78.2094 171.082 77.8278 171.24 77.43 171.24H77.44Z" fill="#263238"/>
<path d="M132.7 171.24H84.57C84.1722 171.24 83.7906 171.082 83.5093 170.801C83.228 170.519 83.07 170.138 83.07 169.74C83.07 169.342 83.228 168.961 83.5093 168.679C83.7906 168.398 84.1722 168.24 84.57 168.24H132.7C133.098 168.24 133.479 168.398 133.761 168.679C134.042 168.961 134.2 169.342 134.2 169.74C134.2 170.138 134.042 170.519 133.761 170.801C133.479 171.082 133.098 171.24 132.7 171.24Z" fill="#C4C4C4"/>
<path d="M132.7 162.58H116.21C115.812 162.58 115.431 162.422 115.149 162.141C114.868 161.859 114.71 161.478 114.71 161.08C114.71 160.682 114.868 160.301 115.149 160.019C115.431 159.738 115.812 159.58 116.21 159.58H132.7C133.098 159.58 133.479 159.738 133.761 160.019C134.042 160.301 134.2 160.682 134.2 161.08C134.2 161.478 134.042 161.859 133.761 162.141C133.479 162.422 133.098 162.58 132.7 162.58Z" fill="#263238"/>
<path d="M110.86 162.58H94.37C93.9722 162.58 93.5906 162.422 93.3093 162.141C93.028 161.859 92.87 161.478 92.87 161.08C92.87 160.682 93.028 160.301 93.3093 160.019C93.5906 159.738 93.9722 159.58 94.37 159.58H110.86C111.258 159.58 111.639 159.738 111.921 160.019C112.202 160.301 112.36 160.682 112.36 161.08C112.36 161.478 112.202 161.859 111.921 162.141C111.639 162.422 111.258 162.58 110.86 162.58Z" fill="#263238"/>
<path d="M87.24 162.58H39.11C38.7122 162.58 38.3307 162.422 38.0493 162.141C37.768 161.859 37.61 161.478 37.61 161.08C37.61 160.682 37.768 160.301 38.0493 160.019C38.3307 159.738 38.7122 159.58 39.11 159.58H87.24C87.6378 159.58 88.0194 159.738 88.3007 160.019C88.582 160.301 88.74 160.682 88.74 161.08C88.74 161.478 88.582 161.859 88.3007 162.141C88.0194 162.422 87.6378 162.58 87.24 162.58Z" fill="#C4C4C4"/>
<path d="M17.39 31.28H12.12V37.23H17.39V31.28Z" fill="#263238"/>
<path d="M17.39 41.05H12.12V47H17.39V41.05Z" fill="#263238"/>
<path d="M17.39 50.82H12.12V56.77H17.39V50.82Z" fill="#263238"/>
<path d="M17.39 60.6H12.12V66.55H17.39V60.6Z" fill="#263238"/>
<path d="M17.39 70.37H12.12V76.32H17.39V70.37Z" fill="#263238"/>
<path d="M17.39 80.14H12.12V86.09H17.39V80.14Z" fill="#263238"/>
<path d="M17.39 89.91H12.12V95.86H17.39V89.91Z" fill="#263238"/>
<path d="M17.39 99.69H12.12V105.64H17.39V99.69Z" fill="#263238"/>
<path d="M17.39 109.46H12.12V115.41H17.39V109.46Z" fill="#263238"/>
<path d="M17.39 119.23H12.12V125.18H17.39V119.23Z" fill="#263238"/>
<path d="M17.39 129H12.12V134.95H17.39V129Z" fill="#263238"/>
<path d="M17.39 138.78H12.12V144.73H17.39V138.78Z" fill="#263238"/>
<path d="M17.39 148.55H12.12V154.5H17.39V148.55Z" fill="#263238"/>
<path d="M17.39 158.32H12.12V164.27H17.39V158.32Z" fill="#263238"/>
<path d="M17.39 168.09H12.12V174.04H17.39V168.09Z" fill="#263238"/>
<path d="M17.39 177.87H12.12V183.82H17.39V177.87Z" fill="#263238"/>
<path d="M17.39 187.64H12.12V193.59H17.39V187.64Z" fill="#263238"/>
<path d="M17.39 197.41H12.12V203.36H17.39V197.41Z" fill="#263238"/>
</svg>
