<svg width="297" height="401" viewBox="0 0 297 401" fill="none" xmlns="http://www.w3.org/2000/svg">
<path d="M146.12 261.31L171.21 393.87L194.14 351.5L237.6 377.01L191.47 247.93L146.12 261.31Z" fill="#14B8A6"/>
<g opacity="0.3">
<path d="M154.56 305.89C156.949 306.34 159.411 306.203 161.734 305.491C164.058 304.778 166.174 303.512 167.9 301.8C170.19 299.44 171.71 296.22 174.59 294.64C177.18 293.22 180.37 293.42 183.22 294.21C186.07 295 188.75 296.31 191.6 297.05C194.412 297.767 197.339 297.916 200.209 297.491C203.08 297.065 205.837 296.072 208.32 294.57L201.08 274.47L167.48 270.27L151.48 289.52L154.56 305.89Z" fill="black"/>
</g>
<path d="M192.51 346.24C192.37 346.24 188.63 332.5 184.16 315.49C179.69 298.48 176.16 284.64 176.32 284.61C176.48 284.58 180.19 298.33 184.66 315.36C189.13 332.39 192.65 346.2 192.51 346.24Z" fill="#263238"/>
<path d="M149.79 268.2L124.7 400.76L101.77 358.4L58.3099 383.9L104.44 254.82L149.79 268.2Z" fill="#14B8A6"/>
<g opacity="0.3">
<path d="M90.64 293.43C90.64 293.43 97.78 299.3 106.29 296.6C114.8 293.9 120.09 293.32 124.7 296.6C129.31 299.88 141.78 310.55 141.78 310.55L144.67 295.26L127.92 272.26L110.44 275.79L98 277L93.37 285.77L90.64 293.43Z" fill="black"/>
</g>
<path d="M296.9 148.54C296.9 158.05 284.75 166.24 282.97 175.23C281.14 184.49 289.2 196.7 285.67 205.23C282.14 213.76 267.67 216.82 262.54 224.53C257.41 232.24 260.11 246.68 253.54 253.26C246.97 259.84 232.54 257.07 224.81 262.26C217.08 267.45 214.18 281.79 205.51 285.39C196.99 288.92 184.78 280.86 175.51 282.69C166.51 284.47 158.33 296.62 148.82 296.62C139.31 296.62 131.11 284.47 122.12 282.69C112.86 280.86 100.65 288.92 92.12 285.39C83.59 281.86 80.54 267.39 72.83 262.26C65.12 257.13 50.68 259.83 44.09 253.26C37.5 246.69 40.28 232.26 35.09 224.53C29.9 216.8 15.56 213.9 11.97 205.23C8.37998 196.56 16.5 184.5 14.67 175.23C12.89 166.23 0.72998 158.05 0.72998 148.54C0.72998 139.03 12.89 130.83 14.67 121.84C16.5 112.58 8.42998 100.37 11.97 91.84C15.51 83.31 29.97 80.25 35.09 72.55C40.21 64.85 37.52 50.4 44.09 43.81C50.66 37.22 65.09 40 72.83 34.81C80.57 29.62 83.45 15.28 92.12 11.69C100.79 8.10002 112.85 16.22 122.12 14.39C131.12 12.61 139.31 0.450012 148.82 0.450012C158.33 0.450012 166.52 12.61 175.51 14.39C184.77 16.22 196.98 8.15002 205.51 11.69C214.18 15.28 217.1 29.69 224.81 34.81C232.52 39.93 246.96 37.24 253.54 43.81C260.12 50.38 257.35 64.81 262.54 72.55C267.73 80.29 282.07 83.17 285.67 91.84C289.27 100.51 281.14 112.57 282.97 121.84C284.75 130.83 296.9 139 296.9 148.54Z" fill="#14B8A6"/>
<path d="M114.17 65.53C114.17 65.53 114.06 65.4 113.9 65.12C113.74 64.84 113.49 64.39 113.22 63.9C112.63 62.84 111.82 61.28 110.86 59.34C108.93 55.46 106.43 50 104.02 43.84C101.61 37.68 99.7599 31.96 98.5499 27.84C97.9499 25.75 97.4899 24.06 97.1999 22.84C97.0699 22.3 96.9599 21.84 96.8799 21.48C96.8282 21.3252 96.8012 21.1632 96.7999 21C96.8776 21.1458 96.938 21.3002 96.9799 21.46L97.3899 22.79C97.7799 24.02 98.2899 25.68 98.8999 27.69C100.2 31.82 102.11 37.49 104.5 43.69C106.89 49.89 109.35 55.3 111.19 59.22L113.4 63.85L113.99 65.11C114.063 65.2443 114.123 65.3848 114.17 65.53Z" fill="#263238"/>
<path d="M127.35 60.52C127.175 60.1709 127.044 59.8014 126.96 59.42C126.75 58.7 126.47 57.65 126.14 56.35C125.48 53.76 124.66 50.14 123.92 46.12C123.18 42.1 122.66 38.43 122.36 35.77C122.2 34.44 122.1 33.36 122.04 32.61C121.994 32.2247 121.994 31.8353 122.04 31.45C122.155 31.8213 122.232 32.2032 122.27 32.59L122.75 35.72C123.15 38.37 123.75 42.02 124.46 46.03C125.17 50.04 125.96 53.66 126.52 56.27C126.79 57.49 127.01 58.53 127.19 59.37C127.281 59.7471 127.335 60.1323 127.35 60.52Z" fill="#263238"/>
<path d="M150.6 58.21C150.45 58.21 150.08 46.99 149.77 33.16C149.46 19.33 149.32 8.1 149.46 8.09C149.6 8.08 149.98 19.3 150.29 33.15C150.6 47 150.74 58.21 150.6 58.21Z" fill="#263238"/>
<path d="M174 35.16C174.14 35.16 172.52 40.81 170.39 47.69C168.26 54.57 166.39 60.1 166.29 60.06C166.19 60.02 167.77 54.41 169.9 47.53C172.03 40.65 173.85 35.12 174 35.16Z" fill="#263238"/>
<path d="M183.54 64.15C183.56 63.9845 183.603 63.8228 183.67 63.67L184.12 62.35C184.52 61.21 185.12 59.57 185.92 57.55C187.49 53.55 189.73 47.96 192.29 41.86C194.85 35.76 197.23 30.27 198.98 26.31C199.84 24.39 200.55 22.81 201.09 21.63L201.68 20.37C201.83 20.09 201.91 19.94 201.93 19.95C201.893 20.1074 201.843 20.2613 201.78 20.41L201.27 21.71L199.32 26.46C197.61 30.52 195.32 36 192.77 42.07C190.22 48.14 187.96 53.62 186.26 57.69L184.31 62.43L183.76 63.71C183.705 63.8652 183.631 64.0129 183.54 64.15Z" fill="#263238"/>
<path d="M196 70.67C196.152 70.3164 196.343 69.9809 196.57 69.67C196.97 69.03 197.57 68.12 198.31 67.01C199.81 64.8 201.97 61.78 204.48 58.56C206.99 55.34 209.4 52.56 211.18 50.56C212.07 49.56 212.81 48.77 213.33 48.23C213.58 47.9304 213.866 47.6619 214.18 47.43C213.987 47.7712 213.751 48.0869 213.48 48.37C212.94 49.03 212.26 49.84 211.48 50.8C209.77 52.86 207.42 55.71 204.91 58.93C202.4 62.15 200.21 65.12 198.63 67.28L196.76 69.83C196.537 70.1357 196.282 70.4172 196 70.67Z" fill="#263238"/>
<path d="M214.22 85.57C214.12 85.47 222.04 77.95 231.89 68.78C241.74 59.61 249.82 52.26 249.89 52.36C249.96 52.46 242.08 59.99 232.22 69.16C222.36 78.33 214.32 85.68 214.22 85.57Z" fill="#263238"/>
<path d="M246 88.68C245.036 89.2898 244.034 89.8376 243 90.32C241.12 91.32 238.57 92.71 235.75 94.32C232.93 95.93 230.33 97.27 228.4 98.17C227.4 98.62 226.66 98.97 226.1 99.17C225.826 99.3125 225.533 99.4136 225.23 99.47C226.194 98.8602 227.196 98.3124 228.23 97.83C230.11 96.83 232.66 95.44 235.48 93.83C238.3 92.22 240.9 90.83 242.83 89.98C243.83 89.53 244.57 89.18 245.13 88.98C245.402 88.8334 245.696 88.732 246 88.68Z" fill="#263238"/>
<path d="M275.39 100.87C275.44 101.01 266.02 104.45 254.39 108.56C242.76 112.67 233.23 115.88 233.19 115.75C233.15 115.62 242.55 112.17 254.19 108.06C265.83 103.95 275.34 100.74 275.39 100.87Z" fill="#263238"/>
<path d="M284.75 154.34C284.75 154.48 274.5 153.63 261.89 152.43C249.28 151.23 239.06 150.14 239.08 149.99C239.1 149.84 249.32 150.71 261.94 151.91C274.56 153.11 284.76 154.2 284.75 154.34Z" fill="#263238"/>
<path d="M277.22 202.3C277.16 202.43 267.59 198.03 255.85 192.49C244.11 186.95 234.64 182.34 234.7 182.21C234.76 182.08 244.33 186.47 256.07 192.02C267.81 197.57 277.28 202.17 277.22 202.3Z" fill="#263238"/>
<path d="M245.74 247.93C245.63 248.02 238.74 240.01 230.33 230.05C221.92 220.09 215.2 211.92 215.33 211.83C215.46 211.74 222.33 219.74 230.74 229.71C239.15 239.68 245.85 247.83 245.74 247.93Z" fill="#263238"/>
<path d="M219.46 254C219.149 253.653 218.871 253.278 218.63 252.88C218.12 252.14 217.4 251.05 216.54 249.7C214.8 246.99 212.47 243.2 210.01 238.95C207.55 234.7 205.45 230.78 204.01 227.95C203.28 226.52 202.69 225.36 202.31 224.55C202.084 224.138 201.897 223.706 201.75 223.26C202.033 223.633 202.28 224.032 202.49 224.45C202.97 225.33 203.59 226.45 204.34 227.78C205.89 230.59 208.05 234.47 210.5 238.72C212.95 242.97 215.23 246.78 216.89 249.53C217.67 250.85 218.33 251.94 218.84 252.8C219.09 253.176 219.298 253.578 219.46 254Z" fill="#263238"/>
<path d="M203.14 276.9C203.14 276.9 203.04 276.77 202.88 276.49L202.23 275.27C201.66 274.2 200.89 272.64 199.97 270.7C198.13 266.81 195.76 261.35 193.51 255.17C191.26 248.99 189.56 243.29 188.51 239.17C187.96 237.09 187.51 235.39 187.29 234.22C187.18 233.68 187.09 233.22 187.01 232.86C186.97 232.703 186.947 232.542 186.94 232.38C187.022 232.523 187.079 232.678 187.11 232.84L187.49 234.17C187.84 235.41 188.3 237.06 188.86 239.07C190.04 243.2 191.79 248.88 194.04 255.07C196.29 261.26 198.59 266.69 200.35 270.62L202.45 275.25C202.67 275.75 202.86 276.17 203.02 276.51C203.076 276.634 203.116 276.765 203.14 276.9Z" fill="#263238"/>
<path d="M170.08 260.81C169.864 259.66 169.72 258.498 169.65 257.33C169.42 255.18 169.05 252.21 168.51 248.96C167.97 245.71 167.34 242.79 166.86 240.68C166.546 239.55 166.305 238.401 166.14 237.24C166.289 237.518 166.403 237.814 166.48 238.12C166.68 238.7 166.93 239.54 167.22 240.59C167.79 242.68 168.47 245.59 169.02 248.88C169.499 251.668 169.832 254.478 170.02 257.3C170.09 258.38 170.13 259.3 170.13 259.87C170.156 260.184 170.139 260.5 170.08 260.81Z" fill="#263238"/>
<path d="M148.45 289.6C148.427 289.431 148.427 289.259 148.45 289.09C148.45 288.69 148.45 288.2 148.45 287.62C148.45 286.34 148.45 284.49 148.45 282.21C148.53 277.64 148.74 271.34 149.1 264.39C149.46 257.44 149.91 251.14 150.28 246.59C150.46 244.31 150.63 242.47 150.76 241.2C150.83 240.62 150.88 240.13 150.92 239.74C150.932 239.566 150.965 239.395 151.02 239.23C151.043 239.403 151.043 239.577 151.02 239.75C151.02 240.14 151.02 240.63 150.95 241.22C150.87 242.57 150.77 244.39 150.64 246.61C150.37 251.24 150.01 257.5 149.64 264.41C149.27 271.32 149.01 277.66 148.84 282.22C148.76 284.44 148.69 286.22 148.64 287.62C148.64 288.21 148.58 288.69 148.56 289.09C148.549 289.265 148.512 289.436 148.45 289.6Z" fill="#263238"/>
<path d="M130.87 239.23C130.863 240.092 130.762 240.95 130.57 241.79C130.31 243.35 129.89 245.5 129.34 247.85C128.79 250.2 128.21 252.32 127.75 253.85C127.551 254.686 127.259 255.498 126.88 256.27C126.969 255.416 127.14 254.572 127.39 253.75L128.83 247.75C129.35 245.5 129.83 243.46 130.21 241.75C130.349 240.891 130.57 240.047 130.87 239.23Z" fill="#263238"/>
<path d="M99.0799 224C97.7698 226.166 96.3096 228.238 94.7099 230.2C93.2425 232.265 91.6424 234.232 89.9199 236.09C91.2273 233.922 92.6876 231.85 94.2899 229.89C95.7506 227.82 97.351 225.852 99.0799 224Z" fill="#263238"/>
<path d="M82.41 212.76C82.51 212.85 76.31 220.14 68.55 229.03C60.79 237.92 54.4 245.03 54.29 244.96C54.18 244.89 60.39 237.58 68.15 228.69C75.91 219.8 82.3 212.66 82.41 212.76Z" fill="#263238"/>
<path d="M74.06 200.35C71.6076 202.715 69.0342 204.952 66.35 207.05C62 210.63 58.4 213.45 58.35 213.34C60.8041 210.98 63.3774 208.747 66.06 206.65C68.6193 204.417 71.2893 202.315 74.06 200.35Z" fill="#263238"/>
<path d="M64.3 181.64C64.36 181.77 55.72 186.07 44.99 191.23C34.26 196.39 25.53 200.48 25.46 200.35C25.39 200.22 34.04 195.93 44.77 190.76C55.5 185.59 64.24 181.51 64.3 181.64Z" fill="#263238"/>
<path d="M60.38 172.31C60.0928 172.436 59.7901 172.524 59.4799 172.57C58.8899 172.71 58.04 172.89 56.99 173.08C54.88 173.48 51.9399 173.92 48.6799 174.25C45.4199 174.58 42.45 174.72 40.3 174.75C39.23 174.75 38.3599 174.75 37.7599 174.75C37.4471 174.77 37.1331 174.74 36.83 174.66C37.977 174.502 39.1323 174.412 40.2899 174.39C42.4299 174.26 45.38 174.06 48.63 173.73C51.88 173.4 54.8099 173.02 56.9299 172.73C58.0686 172.509 59.2215 172.368 60.38 172.31Z" fill="#263238"/>
<path d="M57.2099 150.76C56.6276 150.808 56.0423 150.808 55.4599 150.76L50.6999 150.52C46.6999 150.32 41.1399 150.14 35.0099 150.17C28.8799 150.2 23.3199 150.45 19.3099 150.69L14.5599 150.98C13.9791 151.046 13.3939 151.067 12.8099 151.04C13.378 150.904 13.9569 150.817 14.5399 150.78C15.6599 150.65 17.2799 150.49 19.2799 150.32C23.2799 149.99 28.8599 149.69 34.9999 149.65C41.1399 149.61 46.7099 149.86 50.7299 150.15C52.7299 150.3 54.3599 150.44 55.4799 150.56C56.0606 150.586 56.6387 150.653 57.2099 150.76Z" fill="#263238"/>
<path d="M59.17 131.84C59.17 131.98 52.66 130.29 44.71 128.07C36.76 125.85 30.35 123.95 30.39 123.81C30.43 123.67 36.9 125.35 44.85 127.57C52.8 129.79 59.21 131.7 59.17 131.84Z" fill="#263238"/>
<path d="M63.36 116C63.1992 115.991 63.0408 115.957 62.89 115.9L61.56 115.5C60.42 115.14 58.77 114.58 56.76 113.85C51.508 111.922 46.3609 109.718 41.34 107.25C36.321 104.779 31.4374 102.042 26.71 99.05C24.9 97.9 23.45 96.94 22.47 96.25L21.35 95.44C21.1 95.25 20.97 95.15 20.98 95.13C21.1312 95.1909 21.2754 95.268 21.41 95.36L22.59 96.08C23.59 96.72 25.07 97.63 26.9 98.74C30.57 100.96 35.71 103.89 41.57 106.74C47.43 109.59 52.89 111.91 56.89 113.47C58.89 114.24 60.5 114.85 61.63 115.27L62.92 115.76C63.0731 115.828 63.2203 115.908 63.36 116Z" fill="#263238"/>
<path d="M72.77 100C72.69 100.11 67.63 96.69 61.47 92.35C55.31 88.01 50.38 84.4 50.47 84.28C50.56 84.16 55.61 87.59 61.78 91.93C67.95 96.27 72.85 99.91 72.77 100Z" fill="#263238"/>
<path d="M52.8799 51.42C52.8799 51.42 53.0199 51.5 53.2599 51.69L54.2599 52.57L57.9499 55.83L70.0599 66.64L82.2199 77.39L85.8999 80.66L86.8999 81.57C87.0207 81.6692 87.1282 81.7835 87.2199 81.91C87.2199 81.91 87.0799 81.84 86.8299 81.65L85.8299 80.82C84.9199 80.09 83.6299 79.01 82.0399 77.67C78.8599 74.99 74.5199 71.24 69.7699 67.03C65.0199 62.82 60.7699 58.94 57.7699 56.1C56.2499 54.68 55.0299 53.53 54.1899 52.71L53.2399 51.77C52.9999 51.55 52.8599 51.43 52.8799 51.42Z" fill="#263238"/>
<path d="M84.0699 52.33C84.0699 52.33 84.3399 52.55 84.7499 53.02C85.1599 53.49 85.7499 54.18 86.4399 55.02C87.8299 56.76 89.6799 59.22 91.5999 62.02C93.5199 64.82 95.1299 67.44 96.2399 69.37C96.7999 70.37 97.2399 71.12 97.5199 71.67C97.693 71.9436 97.8276 72.2397 97.9199 72.55C97.187 71.5958 96.5188 70.5936 95.9199 69.55C94.7299 67.67 93.0699 65.1 91.1599 62.3C89.2499 59.5 87.4499 57.03 86.1599 55.24C85.4061 54.3124 84.7082 53.3407 84.0699 52.33Z" fill="#263238"/>
<g opacity="0.2">
<path d="M44.1 43.82L87.61 81.91L98.42 73.26L73.18 34.58C73.18 34.58 71.24 36 66.18 37.44C61.35 38.83 47 39.2 44.1 43.82Z" fill="black"/>
</g>
<g opacity="0.2">
<path d="M92.53 11.6L113.77 64.77L127.35 60.52L122.82 14.4C122.82 14.4 120.49 14.95 115.3 14.29C110.27 13.65 98.08 8.88002 92.53 11.6Z" fill="black"/>
</g>
<g opacity="0.3">
<path d="M149.17 0.470021L150.6 58.21L163.32 58.82L176.2 14.5C173.524 13.9686 170.979 12.9153 168.71 11.4C164.31 8.58002 155.33 2.11038e-05 149.17 0.470021Z" fill="black"/>
</g>
<g opacity="0.2">
<path d="M204.65 11.38L183.54 64.61L195 70.1L224.05 34.24C221.867 32.3967 220.005 30.2035 218.54 27.75C215.8 23.32 211.08 13.15 204.65 11.38Z" fill="black"/>
</g>
<g opacity="0.2">
<path d="M254.23 44.59L214.91 85.59L223.67 97.4L262.09 71.76C260.825 69.4299 259.969 66.8998 259.56 64.28C258.64 59.28 258.51 50.2 254.23 44.59Z" fill="black"/>
</g>
<g opacity="0.2">
<path d="M285.27 90.85L232.32 112.64L236.71 126.17L282.78 121.17C282.78 121.17 282.49 119.75 283.1 114.56C283.68 109.53 289 98.29 285.27 90.85Z" fill="black"/>
</g>
<g opacity="0.2">
<path d="M297 148.54L239.27 150.54L238.79 163.27L282.79 176.15C283.082 174.317 283.67 172.544 284.53 170.9C287.81 164.78 297 156.14 297 148.54Z" fill="black"/>
</g>
<g opacity="0.2">
<path d="M286.35 203.12L233.2 182.41L227.83 194L264 222.63C265.902 220.809 268.005 219.212 270.27 217.87C274.67 215.06 285.13 210.51 286.35 203.12Z" fill="black"/>
</g>
<g opacity="0.2">
<path d="M208.18 202.3L195.02 213.3C196.02 214.3 213.55 244.14 224.36 262.56C224.5 262.439 224.647 262.325 224.8 262.22C231.91 257.46 244.57 259.37 251.71 254.66L208.18 202.3Z" fill="black"/>
<path d="M184 223.18L164.36 229.88L173.66 283.2C174.264 282.987 174.882 282.817 175.51 282.69C184.77 280.86 196.98 288.92 205.51 285.39C206.678 284.889 207.763 284.215 208.73 283.39L184 223.18Z" fill="black"/>
<path d="M148.14 296.6L151.27 226.94L134.27 222.63L121.64 282.63L122.1 282.71C130.9 284.42 138.91 296 148.14 296.6Z" fill="black"/>
<path d="M105.44 215.11C105.44 215.11 83 245.17 71.26 261.35C71.8033 261.624 72.3308 261.927 72.84 262.26C80.55 267.42 83.46 281.79 92.13 285.39C92.53 285.55 92.94 285.68 93.35 285.8L124.7 226.46L105.44 215.11Z" fill="black"/>
<path d="M82.4099 190.91L34.5499 223.8C34.7299 224.04 34.9299 224.27 35.0899 224.52C40.2899 232.28 37.5199 246.67 44.0899 253.25C44.6963 253.846 45.3671 254.372 46.0899 254.82C62.9999 235.76 93.3599 201.54 94.4599 200.35L82.4099 190.91Z" fill="black"/>
<path d="M71.44 167.42L14.85 176.56C15.76 185.64 8.60002 197.1 11.97 205.22C12.1731 205.716 12.4173 206.195 12.7 206.65C32.5 196.79 73.87 176.28 75.59 176.17L71.44 167.42Z" fill="black"/>
<path d="M68.35 135.9L14.86 120.47C14.81 120.93 14.75 121.39 14.67 121.84C12.89 130.84 0.72998 139.03 0.72998 148.54C0.732727 149.173 0.786228 149.805 0.889977 150.43H66.18L68.35 135.9Z" fill="black"/>
<path d="M12.1899 91.43C32.1899 102.14 71.2599 123.81 71.2599 123.81L80.8799 105.54L35.6999 71.54C35.4999 71.89 35.3099 72.25 35.0899 72.54C29.9999 80.13 16.0699 83.09 12.1899 91.43Z" fill="black"/>
</g>
<path d="M296.9 148.54L296.84 147.9C296.816 147.273 296.729 146.65 296.58 146.04C295.998 143.642 294.981 141.371 293.58 139.34C291.86 136.58 289.26 133.49 286.58 129.58C285.067 127.5 283.905 125.186 283.14 122.73C282.489 119.863 282.489 116.887 283.14 114.02C283.7 110.97 284.61 107.83 285.4 104.5C286.19 101.17 286.93 97.57 286.19 93.89C285.771 92.0274 284.918 90.2901 283.7 88.82C282.394 87.3232 280.902 85.9992 279.26 84.88C275.94 82.52 272.12 80.64 268.47 78.18C266.582 76.9624 264.866 75.4959 263.37 73.82C261.901 72.0009 260.834 69.8913 260.24 67.63C258.96 63.08 258.67 58.22 257.7 53.36C257.276 50.8854 256.441 48.4991 255.23 46.3C253.915 44.0861 251.919 42.3567 249.54 41.37C247.085 40.3834 244.514 39.7114 241.89 39.37C239.24 38.93 236.52 38.62 233.8 38.14C231.013 37.7382 228.311 36.8836 225.8 35.61C223.31 34.1134 221.202 32.0595 219.64 29.61C217.98 27.23 216.55 24.67 215.03 22.14C213.574 19.5514 211.83 17.136 209.83 14.94C207.769 12.7186 204.958 11.3398 201.94 11.07C198.857 10.9559 195.774 11.3168 192.8 12.14C189.8 12.87 186.72 13.76 183.57 14.35C180.386 15.1004 177.064 15.0385 173.91 14.17C170.836 12.9639 167.96 11.3019 165.38 9.24001C162.71 7.24001 160.11 5.24002 157.26 3.46002C154.41 1.68002 151.18 0.390013 147.82 0.770013H147.19C146.98 0.770013 146.78 0.860018 146.58 0.900018C146.17 1.00002 145.75 1.07002 145.35 1.19002C144.545 1.44621 143.756 1.7535 142.99 2.11002C141.443 2.84563 139.958 3.7051 138.55 4.68002C135.71 6.68002 133.02 8.86001 130.1 10.84C128.646 11.8577 127.107 12.7477 125.5 13.5C123.853 14.2368 122.09 14.6801 120.29 14.81C116.682 14.8332 113.09 14.3244 109.63 13.3C106.146 12.3054 102.593 11.5734 99 11.11C97.2057 10.9335 95.3946 11.0551 93.64 11.47C91.8923 11.9559 90.2804 12.8388 88.93 14.05C86.17 16.46 84.25 19.7 82.33 22.88C80.5174 26.2099 78.3982 29.3636 76 32.3C74.7304 33.7547 73.2053 34.9646 71.5 35.87C69.7591 36.693 67.9309 37.317 66.05 37.73C62.29 38.56 58.45 38.91 54.66 39.59C50.87 40.27 47 41.34 44.26 44C42.9375 45.4088 41.9167 47.0728 41.26 48.89C40.5979 50.7229 40.1124 52.6148 39.81 54.54C39.11 58.4 38.81 62.36 37.81 66.25C37.3803 68.2243 36.6626 70.1246 35.68 71.89C34.6448 73.6391 33.2875 75.1762 31.68 76.42C28.52 78.96 24.93 80.84 21.49 82.94C19.7666 83.9772 18.113 85.1264 16.54 86.38C14.9751 87.6305 13.659 89.1637 12.66 90.9C11.7075 92.6683 11.2254 94.6518 11.26 96.66C11.2954 98.6787 11.5333 100.689 11.97 102.66C12.81 106.66 14.08 110.59 14.76 114.66C15.1631 116.749 15.2441 118.887 15 121C14.7162 123.108 14.0377 125.143 13 127C10.91 130.65 8.19003 133.86 5.78003 137.26C4.54237 138.936 3.46433 140.723 2.56003 142.6C1.56927 144.43 1.05042 146.479 1.05042 148.56C1.05042 150.641 1.56927 152.69 2.56003 154.52C3.46282 156.397 4.54095 158.185 5.78003 159.86C8.19003 163.26 10.91 166.47 13 170.12C14.0186 171.942 14.6963 173.935 15 176C15.2541 178.085 15.1866 180.196 14.8 182.26C14.13 186.37 12.86 190.31 12.01 194.31C11.5769 196.282 11.3391 198.292 11.3 200.31C11.2606 202.321 11.7393 204.308 12.69 206.08C13.6813 207.822 14.9946 209.359 16.56 210.61C18.133 211.864 19.7866 213.013 21.51 214.05C24.95 216.15 28.51 218.05 31.71 220.57C33.3149 221.817 34.6717 223.353 35.71 225.1C36.7 226.858 37.4181 228.757 37.84 230.73C38.78 234.63 39.1 238.59 39.84 242.45C40.1505 244.375 40.6393 246.266 41.3 248.1C41.9411 249.916 42.9448 251.584 44.25 253C47.02 255.69 50.92 256.76 54.66 257.44C58.4 258.12 62.29 258.44 66.05 259.3C67.9337 259.715 69.7651 260.338 71.51 261.16C73.2131 262.069 74.7377 263.278 76.01 264.73C78.3843 267.671 80.4831 270.825 82.28 274.15C84.2 277.33 86.12 280.57 88.88 282.98C90.2282 284.189 91.8363 285.072 93.58 285.56C95.3497 286.007 97.1815 286.156 99 286C102.587 285.518 106.133 284.772 109.61 283.77C113.072 282.738 116.668 282.225 120.28 282.25C122.08 282.386 123.843 282.832 125.49 283.57C127.096 284.325 128.635 285.214 130.09 286.23C133.01 288.23 135.69 290.44 138.54 292.38C139.942 293.362 141.424 294.225 142.97 294.96C143.737 295.315 144.525 295.622 145.33 295.88C145.74 295.99 146.15 296.07 146.56 296.17L147.18 296.3H147.8C151.17 296.68 154.41 295.3 157.25 293.61C160.09 291.92 162.7 289.79 165.36 287.83C167.944 285.768 170.823 284.106 173.9 282.9C177.055 282.037 180.375 281.975 183.56 282.72C186.71 283.32 189.75 284.21 192.79 284.94C195.769 285.754 198.854 286.115 201.94 286.01C204.954 285.73 207.76 284.348 209.82 282.13C211.814 279.925 213.557 277.507 215.02 274.92C216.53 272.4 217.96 269.84 219.62 267.45C221.191 265.004 223.302 262.952 225.79 261.45C228.3 260.175 231.003 259.324 233.79 258.93C236.52 258.44 239.23 258.13 241.88 257.7C244.506 257.342 247.077 256.654 249.53 255.65C251.906 254.66 253.901 252.931 255.22 250.72C256.424 248.519 257.255 246.133 257.68 243.66C258.68 238.8 258.94 233.93 260.23 229.38C260.818 227.119 261.886 225.012 263.36 223.2C264.852 221.519 266.568 220.052 268.46 218.84C272.11 216.38 275.93 214.5 279.24 212.14C280.889 211.023 282.385 209.695 283.69 208.19C284.907 206.724 285.757 204.99 286.17 203.13C286.519 201.334 286.569 199.493 286.32 197.68C286.113 195.942 285.8 194.219 285.38 192.52C284.58 189.19 283.68 186.05 283.12 183C282.469 180.133 282.469 177.157 283.12 174.29C283.889 171.836 285.05 169.522 286.56 167.44C289.27 163.53 291.88 160.44 293.56 157.68C294.963 155.65 295.98 153.379 296.56 150.98C296.71 150.37 296.797 149.747 296.82 149.12L296.88 148.49C296.88 148.49 296.88 148.7 296.88 149.12C296.861 149.75 296.78 150.376 296.64 150.99C296.071 153.408 295.053 155.697 293.64 157.74C291.93 160.52 289.34 163.62 286.64 167.53C285.14 169.596 283.994 171.898 283.25 174.34C282.599 177.177 282.599 180.123 283.25 182.96C283.81 185.96 284.72 189.13 285.53 192.46C285.966 194.172 286.3 195.908 286.53 197.66C286.779 199.496 286.728 201.36 286.38 203.18C285.963 205.082 285.099 206.858 283.86 208.36C282.543 209.882 281.033 211.226 279.37 212.36C276.03 214.74 272.22 216.63 268.59 219.08C266.736 220.284 265.055 221.734 263.59 223.39C262.146 225.174 261.102 227.247 260.53 229.47C259.26 233.97 258.98 238.83 258 243.72C257.577 246.233 256.736 248.656 255.51 250.89C254.159 253.166 252.112 254.947 249.67 255.97C247.192 256.988 244.594 257.687 241.94 258.05C239.28 258.49 236.56 258.8 233.85 259.29C231.098 259.683 228.43 260.524 225.95 261.78C223.531 263.248 221.479 265.249 219.95 267.63C218.31 270 216.88 272.55 215.36 275.09C213.889 277.704 212.132 280.145 210.12 282.37C207.994 284.663 205.094 286.088 201.98 286.37C198.85 286.493 195.72 286.132 192.7 285.3C189.65 284.57 186.61 283.69 183.49 283.1C180.375 282.371 177.127 282.429 174.04 283.27C171.01 284.465 168.175 286.106 165.63 288.14C162.98 290.09 160.37 292.19 157.49 293.95C156.74 294.35 156.03 294.82 155.25 295.15C154.86 295.33 154.48 295.52 154.09 295.68L152.88 296.11C151.239 296.673 149.497 296.878 147.77 296.71L147.12 296.66C146.91 296.66 146.7 296.57 146.48 296.53C146.06 296.43 145.63 296.35 145.22 296.23C144.389 295.973 143.577 295.659 142.79 295.29C141.221 294.545 139.716 293.672 138.29 292.68C135.42 290.68 132.73 288.5 129.84 286.53C128.404 285.534 126.889 284.658 125.31 283.91C123.712 283.199 122.004 282.77 120.26 282.64C116.695 282.624 113.147 283.133 109.73 284.15C106.216 285.184 102.629 285.949 99 286.44C97.1456 286.621 95.2739 286.496 93.46 286.07C91.6431 285.564 89.9667 284.647 88.56 283.39C85.72 280.9 83.78 277.63 81.86 274.44C80.0809 271.141 77.9986 268.014 75.64 265.1C74.4113 263.692 72.9332 262.522 71.28 261.65C69.5758 260.84 67.784 260.23 65.94 259.83C62.22 259.01 58.39 258.66 54.57 257.97C52.6455 257.65 50.7543 257.155 48.92 256.49C47.0597 255.808 45.3582 254.753 43.92 253.39C42.555 251.932 41.5094 250.205 40.85 248.32C40.1749 246.458 39.676 244.536 39.36 242.58C38.66 238.69 38.36 234.73 37.36 230.89C36.9448 228.966 36.2437 227.116 35.28 225.4C34.2679 223.704 32.9447 222.215 31.38 221.01C28.28 218.52 24.7 216.64 21.25 214.53C19.5095 213.48 17.8393 212.317 16.25 211.05C14.6324 209.753 13.2751 208.162 12.25 206.36C11.2626 204.517 10.7666 202.45 10.81 200.36C10.8338 198.29 11.0751 196.229 11.53 194.21C12.38 190.21 13.65 186.21 14.31 182.21C14.6875 180.195 14.7516 178.134 14.5 176.1C14.1971 174.079 13.5188 172.132 12.5 170.36C10.5 166.76 7.74003 163.57 5.31003 160.14C4.04369 158.431 2.93577 156.61 2.00003 154.7C0.982872 152.799 0.450684 150.676 0.450684 148.52C0.450684 146.364 0.982872 144.241 2.00003 142.34C2.92296 140.436 4.02102 138.621 5.28003 136.92C7.71003 133.49 10.42 130.3 12.46 126.71C13.4778 124.934 14.156 122.984 14.46 120.96C14.6933 118.925 14.6259 116.866 14.26 114.85C13.59 110.85 12.32 106.85 11.47 102.85C11.0234 100.833 10.7854 98.7756 10.76 96.71C10.7201 94.6187 11.2195 92.5523 12.21 90.71C13.2418 88.9156 14.5982 87.3286 16.21 86.03C17.7968 84.7593 19.4673 83.5967 21.21 82.55C24.66 80.44 28.21 78.55 31.34 76.07C32.9018 74.8649 34.2216 73.3754 35.23 71.68C36.189 69.9595 36.8866 68.1058 37.3 66.18C38.23 62.34 38.55 58.39 39.3 54.5C39.6126 52.5446 40.1081 50.6228 40.78 48.76C41.383 46.8533 42.4326 45.1181 43.8415 43.6987C45.2504 42.2794 46.9778 41.2171 48.88 40.6C50.7143 39.9355 52.6055 39.4401 54.53 39.12C58.35 38.43 62.18 38.12 65.9 37.27C67.7406 36.8583 69.5311 36.2481 71.24 35.45C72.8884 34.5708 74.3625 33.3983 75.59 31.99C77.9486 29.0763 80.0309 25.9495 81.81 22.65C83.73 19.46 85.67 16.19 88.52 13.71C89.9335 12.4348 91.625 11.5069 93.46 11C95.2746 10.5782 97.1455 10.4532 99 10.63C102.607 11.1123 106.174 11.861 109.67 12.87C113.085 13.8954 116.634 14.4077 120.2 14.39C121.928 14.2523 123.619 13.8193 125.2 13.11C126.784 12.372 128.3 11.4953 129.73 10.49C132.63 8.49001 135.32 6.30002 138.19 4.35002C139.613 3.35394 141.119 2.48079 142.69 1.74001C143.476 1.37353 144.284 1.05625 145.11 0.790017C145.53 0.670017 145.96 0.600016 146.38 0.500016L147.01 0.360017H147.66C149.387 0.196936 151.128 0.401423 152.77 0.960016L153.98 1.39002C154.37 1.55002 154.75 1.74001 155.14 1.92001C155.93 2.26001 156.64 2.72002 157.38 3.12002C160.27 4.88002 162.87 6.98002 165.53 8.93002C168.072 10.962 170.903 12.6033 173.93 13.8C177.016 14.6458 180.265 14.7042 183.38 13.97C186.5 13.39 189.54 12.51 192.59 11.78C195.61 10.9495 198.74 10.5853 201.87 10.7C204.983 10.986 207.882 12.4102 210.01 14.7C212.024 16.9287 213.785 19.3736 215.26 21.99C216.78 24.52 218.2 27.08 219.84 29.44C221.366 31.8262 223.418 33.8309 225.84 35.3C228.318 36.5604 230.987 37.4018 233.74 37.79C236.45 38.28 239.17 38.59 241.83 39.03C244.483 39.398 247.08 40.0968 249.56 41.11C252.001 42.1318 254.052 43.9086 255.41 46.18C256.631 48.4156 257.473 50.8386 257.9 53.35C258.9 58.24 259.16 63.1 260.42 67.6C260.999 69.8202 262.042 71.8924 263.48 73.68C264.942 75.3415 266.624 76.795 268.48 78C272.11 80.45 275.93 82.34 279.26 84.72C280.923 85.8536 282.433 87.1982 283.75 88.72C284.99 90.2194 285.857 91.9911 286.28 93.89C286.629 95.7131 286.679 97.5807 286.43 99.42C286.201 101.168 285.867 102.902 285.43 104.61C284.63 107.95 283.71 111.08 283.15 114.12C282.499 116.957 282.499 119.904 283.15 122.74C283.894 125.182 285.04 127.484 286.54 129.55C289.23 133.47 291.82 136.55 293.54 139.34C294.95 141.384 295.968 143.673 296.54 146.09C296.68 146.704 296.761 147.33 296.78 147.96C296.9 148.32 296.9 148.54 296.9 148.54Z" fill="#263238"/>
<path d="M121 286C121.14 286 117.45 301 112.76 319.42C108.07 337.84 104.15 352.75 104.01 352.72C103.87 352.69 107.56 337.72 112.25 319.29C116.94 300.86 120.9 285.92 121 286Z" fill="#263238"/>
<path d="M148.82 239.32C198.956 239.32 239.6 198.676 239.6 148.54C239.6 98.4036 198.956 57.76 148.82 57.76C98.6836 57.76 58.04 98.4036 58.04 148.54C58.04 198.676 98.6836 239.32 148.82 239.32Z" fill="white"/>
<path d="M102.39 70.52L101.33 71.22L98.21 73.22C96.83 74.11 95.21 75.38 93.31 76.78C92.31 77.5 91.39 78.37 90.31 79.25L88.68 80.62C88.12 81.1 87.59 81.62 87.02 82.17C81.4892 87.3294 76.6309 93.1654 72.56 99.54L70.78 102.4C70.15 103.35 69.67 104.4 69.09 105.4C68.51 106.4 67.94 107.48 67.42 108.58C66.9 109.68 66.42 110.81 65.88 111.95C65.63 112.52 65.35 113.08 65.11 113.67C64.87 114.26 64.66 114.86 64.43 115.47C63.98 116.67 63.5 117.88 63.06 119.13C62.32 121.66 61.38 124.22 60.82 126.95C57.9692 138.762 57.4933 151.023 59.42 163.02C61.9271 178.469 68.3964 193.005 78.1966 205.209C87.9967 217.412 100.793 226.867 115.337 232.65C129.881 238.433 145.676 240.347 161.18 238.205C176.684 236.064 191.368 229.939 203.8 220.43C206.938 218.017 209.924 215.412 212.74 212.63L214.74 210.51C215.42 209.81 216.08 209.1 216.74 208.35L218.64 206.16C219.24 205.4 219.83 204.64 220.43 203.89C229.476 192.239 235.51 178.538 238 164C238.585 160.625 238.983 157.219 239.19 153.8C239.29 152.11 239.29 150.44 239.35 148.8C239.41 147.16 239.23 145.49 239.17 143.86C239.17 143.05 239.1 142.23 239.07 141.42C239.04 140.61 238.89 139.82 238.81 139.02C238.61 137.43 238.42 135.85 238.23 134.29C238.04 132.73 237.63 131.21 237.33 129.69C237.079 128.183 236.745 126.69 236.33 125.22L235.09 120.89C234.895 120.18 234.658 119.482 234.38 118.8C234.12 118.11 233.86 117.42 233.61 116.74C233.08 115.39 232.61 114.01 232.04 112.74C231.47 111.47 230.85 110.18 230.26 108.93C225.911 99.8891 220.077 91.6414 213 84.53C207.638 79.2024 201.655 74.539 195.18 70.64L191.36 68.45C190.783 68.112 190.189 67.8049 189.58 67.53L187.9 66.73L184.9 65.31C184 64.85 183.11 64.59 182.36 64.31L178.88 62.97L177.7 62.49L178.9 62.92L182.39 64.22C183.15 64.52 184.04 64.78 184.95 65.22L187.95 66.62L189.64 67.42C190.252 67.6879 190.85 67.9883 191.43 68.32L195.26 70.5C201.778 74.3743 207.799 79.0286 213.19 84.36C220.309 91.4662 226.184 99.7177 230.57 108.77C231.16 110.04 231.76 111.31 232.37 112.61C232.98 113.91 233.37 115.28 233.95 116.61L234.73 118.67C235.008 119.355 235.246 120.056 235.44 120.77C235.86 122.21 236.28 123.65 236.7 125.12C237.133 126.596 237.484 128.095 237.75 129.61C238.05 131.13 238.41 132.61 238.67 134.22C238.93 135.83 239.05 137.38 239.25 138.98C239.34 139.78 239.47 140.58 239.52 141.39C239.57 142.2 239.59 143.02 239.62 143.84C239.68 145.48 239.77 147.13 239.81 148.84C239.85 150.55 239.76 152.19 239.65 153.84C238.628 172.145 232.061 189.707 220.82 204.19L219 206.47L217.08 208.68C216.46 209.43 215.79 210.15 215.08 210.85L213.08 212.99C210.247 215.789 207.241 218.407 204.08 220.83C191.588 230.379 176.836 236.528 161.26 238.678C145.684 240.829 129.817 238.907 115.206 233.099C100.594 227.292 87.7363 217.798 77.886 205.543C68.0357 193.287 61.529 178.689 59 163.17C57.9853 156.915 57.65 150.568 58 144.24C58.2521 138.404 59.0931 132.607 60.51 126.94C61.07 124.2 62.02 121.64 62.76 119.09C63.21 117.85 63.7 116.63 64.16 115.42C64.39 114.82 64.62 114.22 64.84 113.62C65.06 113.02 65.37 112.47 65.62 111.89C66.15 110.75 66.62 109.63 67.17 108.52C67.72 107.41 68.31 106.38 68.86 105.33C69.41 104.28 69.93 103.24 70.56 102.28L72.36 99.42C76.4523 93.0356 81.3492 87.2044 86.93 82.07C87.5 81.54 88.03 81 88.59 80.52L90.23 79.15C91.31 78.28 92.23 77.42 93.23 76.7C95.18 75.3 96.78 74.05 98.17 73.17L101.32 71.17C102 70.73 102.39 70.52 102.39 70.52Z" fill="#263238"/>
</svg>
