<svg width="84" height="57" viewBox="0 0 84 57" fill="none" xmlns="http://www.w3.org/2000/svg">
<path d="M52.55 34.06V26.35L44.85 25.5C44.435 23.8901 43.7989 22.3454 42.96 20.91L47.83 14.83L42.38 9.38L36.32 14.22C34.8888 13.3796 33.3519 12.7339 31.75 12.3L30.89 4.57001H23.18L22.32 12.27C20.7118 12.6857 19.1677 13.3181 17.73 14.15L11.65 9.28999L6.19997 14.74L11 20.8C10.1586 22.2295 9.516 23.7669 9.08997 25.37L1.34998 26.23V33.94L9.04997 34.8C9.46655 36.4094 10.1025 37.9539 10.94 39.39L6.06998 45.47L11.53 50.92L17.58 46.08C19.0103 46.9196 20.5475 47.5621 22.15 47.99L23.02 55.73H30.72L31.58 48.03C33.1886 47.6109 34.7327 46.9751 36.17 46.14L42.25 51L47.7 45.55L42.86 39.5C43.7004 38.0653 44.3461 36.5251 44.78 34.92L52.55 34.06ZM27 39.35C25.1804 39.35 23.4016 38.8104 21.8887 37.7995C20.3758 36.7886 19.1966 35.3518 18.5003 33.6707C17.8039 31.9896 17.6218 30.1398 17.9767 28.3552C18.3317 26.5705 19.2079 24.9313 20.4946 23.6446C21.7812 22.358 23.4205 21.4818 25.2051 21.1268C26.9898 20.7718 28.8396 20.954 30.5207 21.6503C32.2017 22.3466 33.6386 23.5258 34.6495 25.0388C35.6604 26.5517 36.2 28.3304 36.2 30.15C36.2 32.59 35.2307 34.9301 33.5054 36.6554C31.78 38.3807 29.44 39.35 27 39.35Z" fill="white" stroke="#263238" stroke-linecap="round" stroke-linejoin="round"/>
<path d="M82.85 18.59L81.99 13.48L76.8 13.77C76.3429 12.752 75.7509 11.8001 75.04 10.94L77.59 6.38L73.37 3.38L69.9 7.25999C68.8614 6.85461 67.7705 6.59873 66.66 6.5L65.24 1.5L60.13 2.36L60.42 7.55C59.4 8.00333 58.4476 8.59561 57.59 9.31L53 6.72L50 10.93L53.88 14.4C53.476 15.4431 53.2169 16.5366 53.11 17.65L48.11 19.07L48.96 24.18L54.15 23.89C54.6071 24.908 55.1991 25.8599 55.91 26.72L53.37 31.28L57.58 34.28L61.05 30.4C62.0889 30.8042 63.1797 31.0601 64.29 31.16L65.72 36.16L70.82 35.3L70.54 30.11C71.56 29.6567 72.5124 29.0644 73.37 28.35L77.93 30.9L80.93 26.69L77.05 23.22C77.4461 22.1751 77.7017 21.0822 77.81 19.97L82.85 18.59ZM66.5 24.92C65.2967 25.1206 64.0609 24.9599 62.9489 24.4584C61.8369 23.9569 60.8985 23.137 60.2523 22.1023C59.6061 21.0676 59.2811 19.8645 59.3185 18.6452C59.3558 17.4259 59.7537 16.245 60.462 15.2517C61.1702 14.2585 62.157 13.4975 63.2976 13.0649C64.4383 12.6323 65.6815 12.5476 66.8703 12.8214C68.0591 13.0951 69.14 13.7152 69.9765 14.6031C70.813 15.491 71.3676 16.607 71.57 17.81C71.7046 18.6098 71.6802 19.4283 71.4982 20.2187C71.3161 21.0091 70.9801 21.7558 70.5092 22.4162C70.0383 23.0766 69.4418 23.6376 68.7538 24.0672C68.0659 24.4969 67.3 24.7867 66.5 24.92Z" fill="#263238" stroke="#263238" stroke-miterlimit="10"/>
</svg>
