<svg width="478" height="221" viewBox="0 0 478 221" fill="none" xmlns="http://www.w3.org/2000/svg">
<path d="M150.082 92.4881C146.292 83.8581 141.912 75.2281 135.012 68.8181C124.692 59.2481 110.232 55.9281 96.5616 52.5581C66.8516 45.2281 37.6216 35.9781 9.10162 24.8781C3.57162 22.7281 -1.78838 28.328 0.571622 33.778C3.19162 39.838 6.20162 45.688 10.0716 51.028C17.0016 60.588 27.1616 68.4381 38.8816 69.8981C34.6016 70.3281 30.0716 70.848 27.0216 74.298C25.4716 76.048 24.8216 78.488 25.6016 80.688C26.9016 84.338 31.0916 85.098 34.6916 85.498C41.8016 86.278 48.9216 87.0581 56.0316 87.8381C50.6616 89.2481 47.2616 95.378 48.2916 100.828C49.3216 106.278 54.2216 110.578 59.6716 111.578C64.4816 112.458 69.5316 110.988 73.5116 108.118C70.7416 111.048 70.6016 116.268 73.0916 119.618C75.9816 123.508 81.3616 124.948 86.1516 124.188C90.9416 123.428 95.2416 120.818 99.1116 117.898C101.392 122.788 106.462 126.258 111.852 126.608C117.242 126.958 122.722 124.168 125.612 119.618C128.062 127.898 139.212 132.158 146.562 127.618C151.322 135.138 156.082 142.648 160.832 150.168L164.712 134.498C160.952 120.138 156.062 106.088 150.092 92.498L150.082 92.4881Z" fill="#263238"/>
<g opacity="0.8">
<path d="M150.082 92.4881C146.292 83.8581 141.912 75.2281 135.012 68.8181C124.692 59.2481 110.232 55.9281 96.5616 52.5581C66.8516 45.2281 37.6216 35.9781 9.10162 24.8781C3.57162 22.7281 -1.78838 28.328 0.571622 33.778C3.19162 39.838 6.20162 45.688 10.0716 51.028C17.0016 60.588 27.1616 68.4381 38.8816 69.8981C34.6016 70.3281 30.0716 70.848 27.0216 74.298C25.4716 76.048 24.8216 78.488 25.6016 80.688C26.9016 84.338 31.0916 85.098 34.6916 85.498C41.8016 86.278 48.9216 87.0581 56.0316 87.8381C50.6616 89.2481 47.2616 95.378 48.2916 100.828C49.3216 106.278 54.2216 110.578 59.6716 111.578C64.4816 112.458 69.5316 110.988 73.5116 108.118C70.7416 111.048 70.6016 116.268 73.0916 119.618C75.9816 123.508 81.3616 124.948 86.1516 124.188C90.9416 123.428 95.2416 120.818 99.1116 117.898C101.392 122.788 106.462 126.258 111.852 126.608C117.242 126.958 122.722 124.168 125.612 119.618C128.062 127.898 139.212 132.158 146.562 127.618C151.322 135.138 156.082 142.648 160.832 150.168L164.712 134.498C160.952 120.138 156.062 106.088 150.092 92.498L150.082 92.4881Z" fill="white"/>
</g>
<path d="M322.532 86.458C327.092 78.208 332.232 70.0081 339.692 64.2581C350.842 55.6581 365.542 53.6681 379.462 51.5581C409.712 46.9581 439.662 40.3981 469.072 31.9281C474.772 30.2881 479.602 36.3481 476.762 41.5581C473.602 47.3581 470.072 52.908 465.742 57.878C457.972 66.768 447.142 73.658 435.332 74.048C439.552 74.868 444.022 75.7981 446.742 79.5081C448.122 81.3881 448.552 83.8881 447.582 86.0081C445.962 89.5281 441.722 89.908 438.102 89.968C430.942 90.098 423.792 90.228 416.632 90.358C421.852 92.248 424.682 98.668 423.162 103.998C421.642 109.328 416.372 113.168 410.852 113.668C405.982 114.108 401.092 112.188 397.392 108.958C399.882 112.128 399.552 117.338 396.762 120.448C393.532 124.068 388.042 125.008 383.332 123.818C378.632 122.628 374.592 119.638 371.002 116.378C368.292 121.048 362.922 124.038 357.522 123.898C352.122 123.758 346.922 120.488 344.452 115.688C341.252 123.718 329.772 126.938 322.862 121.758C317.442 128.808 312.022 135.868 306.602 142.918L304.162 126.958C309.212 113.008 315.362 99.448 322.542 86.458H322.532Z" fill="#263238"/>
<g opacity="0.8">
<path d="M322.532 86.458C327.092 78.208 332.232 70.0081 339.692 64.2581C350.842 55.6581 365.542 53.6681 379.462 51.5581C409.712 46.9581 439.662 40.3981 469.072 31.9281C474.772 30.2881 479.602 36.3481 476.762 41.5581C473.602 47.3581 470.072 52.908 465.742 57.878C457.972 66.768 447.142 73.658 435.332 74.048C439.552 74.868 444.022 75.7981 446.742 79.5081C448.122 81.3881 448.552 83.8881 447.582 86.0081C445.962 89.5281 441.722 89.908 438.102 89.968C430.942 90.098 423.792 90.228 416.632 90.358C421.852 92.248 424.682 98.668 423.162 103.998C421.642 109.328 416.372 113.168 410.852 113.668C405.982 114.108 401.092 112.188 397.392 108.958C399.882 112.128 399.552 117.338 396.762 120.448C393.532 124.068 388.042 125.008 383.332 123.818C378.632 122.628 374.592 119.638 371.002 116.378C368.292 121.048 362.922 124.038 357.522 123.898C352.122 123.758 346.922 120.488 344.452 115.688C341.252 123.718 329.772 126.938 322.862 121.758C317.442 128.808 312.022 135.868 306.602 142.918L304.162 126.958C309.212 113.008 315.362 99.448 322.542 86.458H322.532Z" fill="white"/>
</g>
<path d="M311.646 138.978C319.146 93.969 288.738 51.4022 243.729 43.9025C198.72 36.4028 156.153 66.8104 148.653 111.82C141.154 156.829 171.561 199.396 216.57 206.895C261.579 214.395 304.146 183.987 311.646 138.978Z" fill="#14B8A6"/>
<path opacity="0.3" d="M311.646 138.978C319.146 93.969 288.738 51.4022 243.729 43.9025C198.72 36.4028 156.153 66.8104 148.653 111.82C141.154 156.829 171.561 199.396 216.57 206.895C261.579 214.395 304.146 183.987 311.646 138.978Z" fill="black"/>
<path d="M315.901 120.88C323.401 75.8703 292.993 33.3034 247.984 25.8037C202.975 18.3041 160.408 48.7116 152.908 93.7208C145.408 138.73 175.816 181.297 220.825 188.797C265.834 196.296 308.401 165.889 315.901 120.88Z" fill="#14B8A6"/>
<path d="M288.064 160.966C317.697 131.333 317.697 83.2882 288.064 53.6553C258.431 24.0223 210.387 24.0223 180.754 53.6553C151.121 83.2882 151.121 131.333 180.754 160.966C210.387 190.599 258.431 190.599 288.064 160.966Z" fill="#14B8A6"/>
<path opacity="0.7" d="M288.064 160.966C317.697 131.333 317.697 83.2882 288.064 53.6553C258.431 24.0223 210.387 24.0223 180.754 53.6553C151.121 83.2882 151.121 131.333 180.754 160.966C210.387 190.599 258.431 190.599 288.064 160.966Z" fill="white"/>
<path opacity="0.4" d="M262.082 36.6281L162.202 130.678C162.202 130.678 169.082 148.078 175.342 154.938L282.682 48.7581C282.682 48.7581 273.512 40.568 262.082 36.638V36.6281Z" fill="white"/>
<path opacity="0.4" d="M292.462 58.9781L180.672 160.878C180.672 160.878 182.422 163.668 190.482 168.878L300.842 70.418C300.842 70.418 299.562 66.438 292.462 58.968V58.9781Z" fill="white"/>
<path d="M232.532 39.668V48.7281H230.852V41.078H228.942V39.668H232.542H232.532Z" fill="#263238"/>
<path d="M240.892 47.3081V48.7281H234.212V47.5981L237.812 44.1781C238.222 43.7881 238.492 43.4481 238.632 43.1581C238.772 42.8681 238.842 42.578 238.842 42.298C238.842 41.878 238.702 41.548 238.412 41.328C238.122 41.108 237.712 40.9881 237.152 40.9881C236.232 40.9881 235.522 41.2981 235.032 41.9281L233.852 41.0181C234.202 40.5481 234.682 40.1781 235.282 39.9081C235.882 39.6481 236.552 39.5181 237.292 39.5181C238.272 39.5181 239.062 39.748 239.652 40.218C240.242 40.688 240.532 41.3181 240.532 42.1181C240.532 42.6081 240.432 43.068 240.222 43.498C240.012 43.928 239.622 44.418 239.032 44.968L236.612 47.2681H240.882L240.892 47.3081Z" fill="#263238"/>
<path d="M235.122 169.008C235.592 169.238 235.962 169.558 236.232 169.988C236.502 170.408 236.632 170.898 236.632 171.448C236.632 172.038 236.482 172.548 236.192 172.998C235.902 173.438 235.502 173.788 235.002 174.028C234.502 174.268 233.942 174.388 233.322 174.388C232.082 174.388 231.112 173.998 230.432 173.218C229.742 172.438 229.402 171.328 229.402 169.878C229.402 168.858 229.592 167.988 229.962 167.268C230.332 166.548 230.852 165.998 231.522 165.628C232.192 165.248 232.962 165.068 233.842 165.068C234.312 165.068 234.742 165.118 235.152 165.218C235.562 165.318 235.922 165.458 236.222 165.648L235.602 166.918C235.152 166.628 234.582 166.478 233.882 166.478C233.012 166.478 232.332 166.748 231.842 167.278C231.352 167.818 231.102 168.588 231.102 169.598C231.372 169.298 231.712 169.068 232.122 168.908C232.532 168.748 233.002 168.668 233.522 168.668C234.122 168.668 234.652 168.778 235.132 169.008H235.122ZM234.512 172.648C234.842 172.368 235.002 171.998 235.002 171.528C235.002 171.058 234.842 170.678 234.512 170.398C234.182 170.118 233.742 169.988 233.192 169.988C232.642 169.988 232.202 170.138 231.862 170.428C231.522 170.718 231.352 171.098 231.352 171.538C231.352 171.978 231.522 172.338 231.852 172.628C232.182 172.918 232.642 173.058 233.232 173.058C233.762 173.058 234.182 172.918 234.512 172.638V172.648Z" fill="#263238"/>
<path d="M266.412 50.638V59.6981H264.732V52.048H262.812V50.638H266.412Z" fill="#263238"/>
<path d="M267.142 160.098C267.752 160.598 268.062 161.268 268.062 162.128C268.062 162.668 267.932 163.168 267.662 163.608C267.392 164.048 266.992 164.398 266.462 164.658C265.922 164.918 265.262 165.048 264.482 165.048C263.832 165.048 263.212 164.958 262.602 164.768C262.002 164.578 261.492 164.328 261.072 163.998L261.782 162.688C262.122 162.968 262.522 163.178 262.992 163.338C263.462 163.498 263.952 163.578 264.452 163.578C265.052 163.578 265.512 163.458 265.852 163.208C266.192 162.958 266.362 162.628 266.362 162.188C266.362 161.718 266.182 161.368 265.812 161.138C265.442 160.898 264.822 160.778 263.932 160.778H261.742L262.212 155.848H267.532V157.258H263.632L263.442 159.358H264.312C265.592 159.358 266.532 159.608 267.142 160.098Z" fill="#263238"/>
<path d="M202.052 50.638V59.6981H200.372V52.048H198.462V50.638H202.062H202.052Z" fill="#263238"/>
<path d="M206.982 50.638V59.6981H205.302V52.048H203.382V50.638H206.982Z" fill="#263238"/>
<path d="M202.052 155.848V164.908H200.372V157.258H198.462V155.848H202.062H202.052Z" fill="#263238"/>
<path d="M206.982 155.848V164.908H205.302V157.258H203.382V155.848H206.982Z" fill="#263238"/>
<path d="M289.252 77.9881V79.4081H282.572V78.278L286.172 74.858C286.582 74.468 286.852 74.1281 286.992 73.8381C287.132 73.5481 287.202 73.2581 287.202 72.9781C287.202 72.5581 287.062 72.2281 286.772 72.0081C286.482 71.7881 286.072 71.668 285.512 71.668C284.592 71.668 283.882 71.978 283.392 72.608L282.212 71.6981C282.562 71.2281 283.042 70.8581 283.642 70.5881C284.242 70.3281 284.912 70.1981 285.652 70.1981C286.632 70.1981 287.422 70.4281 288.012 70.8981C288.602 71.3681 288.892 71.998 288.892 72.798C288.892 73.288 288.792 73.7481 288.582 74.1781C288.372 74.6081 287.982 75.0981 287.392 75.6481L284.972 77.9481H289.242L289.252 77.9881Z" fill="#263238"/>
<path d="M291.042 139.938H289.442V141.998H287.812V139.938H282.842V138.768L287.302 132.928H289.102L284.892 138.508H287.852V136.688H289.432V138.508H291.032V139.928L291.042 139.938Z" fill="#263238"/>
<path d="M181.672 70.3481V79.4081H179.992V71.7581H178.072V70.3481H181.672Z" fill="#263238"/>
<path d="M185.312 78.9881C184.742 78.6181 184.292 78.088 183.962 77.388C183.632 76.688 183.472 75.848 183.472 74.888C183.472 73.928 183.632 73.088 183.962 72.388C184.292 71.688 184.742 71.148 185.312 70.778C185.882 70.408 186.532 70.2281 187.252 70.2281C187.972 70.2281 188.622 70.408 189.202 70.778C189.772 71.148 190.222 71.678 190.552 72.388C190.882 73.088 191.042 73.928 191.042 74.888C191.042 75.848 190.882 76.688 190.552 77.388C190.222 78.088 189.772 78.6281 189.202 78.9881C188.632 79.3581 187.982 79.5381 187.252 79.5381C186.522 79.5381 185.882 79.3581 185.312 78.9881ZM188.782 77.278C189.152 76.748 189.342 75.948 189.342 74.888C189.342 73.828 189.152 73.028 188.782 72.498C188.412 71.958 187.892 71.6981 187.252 71.6981C186.612 71.6981 186.102 71.968 185.732 72.498C185.352 73.038 185.172 73.828 185.172 74.888C185.172 75.948 185.362 76.748 185.732 77.278C186.102 77.818 186.612 78.078 187.252 78.078C187.892 78.078 188.412 77.808 188.782 77.278Z" fill="#263238"/>
<path d="M185.512 137.968C185.762 138.338 185.892 138.768 185.892 139.258C185.892 139.808 185.742 140.298 185.432 140.708C185.122 141.118 184.692 141.438 184.132 141.658C183.572 141.878 182.922 141.988 182.182 141.988C181.442 141.988 180.792 141.878 180.232 141.658C179.672 141.438 179.242 141.118 178.942 140.708C178.642 140.298 178.492 139.808 178.492 139.258C178.492 138.768 178.612 138.338 178.872 137.968C179.122 137.598 179.482 137.308 179.942 137.098C179.582 136.898 179.302 136.638 179.112 136.318C178.922 135.998 178.822 135.618 178.822 135.198C178.822 134.688 178.962 134.248 179.242 133.868C179.522 133.488 179.922 133.198 180.422 132.988C180.932 132.778 181.522 132.678 182.182 132.678C182.842 132.678 183.442 132.778 183.952 132.988C184.462 133.198 184.862 133.488 185.142 133.868C185.422 134.248 185.572 134.688 185.572 135.198C185.572 135.618 185.472 135.988 185.272 136.308C185.072 136.628 184.792 136.888 184.422 137.098C184.892 137.318 185.262 137.608 185.512 137.968ZM183.652 140.278C184.012 140.018 184.192 139.658 184.192 139.208C184.192 138.758 184.012 138.408 183.652 138.148C183.292 137.888 182.802 137.758 182.172 137.758C181.542 137.758 181.062 137.888 180.712 138.148C180.362 138.408 180.182 138.758 180.182 139.208C180.182 139.658 180.362 140.028 180.712 140.278C181.062 140.538 181.552 140.668 182.172 140.668C182.792 140.668 183.282 140.538 183.652 140.278ZM180.932 134.328C180.622 134.548 180.472 134.868 180.472 135.278C180.472 135.688 180.622 135.978 180.932 136.198C181.242 136.428 181.652 136.538 182.182 136.538C182.712 136.538 183.142 136.428 183.452 136.198C183.762 135.968 183.922 135.658 183.922 135.278C183.922 134.898 183.762 134.558 183.452 134.328C183.132 134.108 182.712 133.988 182.192 133.988C181.672 133.988 181.252 134.098 180.942 134.328H180.932Z" fill="#263238"/>
<path d="M297.162 106.438C297.602 106.908 297.822 107.488 297.822 108.188C297.822 108.718 297.692 109.188 297.422 109.628C297.152 110.058 296.752 110.398 296.212 110.658C295.672 110.908 295.012 111.038 294.242 111.038C293.592 111.038 292.972 110.948 292.372 110.758C291.772 110.568 291.262 110.318 290.842 109.988L291.562 108.678C291.892 108.958 292.292 109.168 292.762 109.328C293.232 109.488 293.722 109.568 294.222 109.568C294.822 109.568 295.282 109.448 295.622 109.198C295.962 108.948 296.132 108.618 296.132 108.198C296.132 107.778 295.972 107.448 295.642 107.208C295.322 106.968 294.822 106.848 294.162 106.848H293.332V105.698L295.392 103.248H291.272V101.838H297.442V102.958L295.242 105.568C296.082 105.668 296.722 105.958 297.162 106.418V106.438Z" fill="#263238"/>
<path d="M175.492 102.878C176.182 103.658 176.522 104.768 176.522 106.218C176.522 107.238 176.332 108.108 175.962 108.828C175.592 109.548 175.072 110.098 174.402 110.468C173.732 110.848 172.962 111.028 172.082 111.028C171.612 111.028 171.182 110.978 170.772 110.878C170.362 110.778 170.002 110.638 169.702 110.448L170.322 109.178C170.772 109.468 171.342 109.618 172.042 109.618C172.912 109.618 173.592 109.348 174.082 108.818C174.572 108.288 174.822 107.508 174.822 106.498C174.552 106.798 174.212 107.028 173.802 107.188C173.392 107.348 172.922 107.428 172.402 107.428C171.802 107.428 171.272 107.318 170.802 107.088C170.332 106.858 169.952 106.538 169.692 106.108C169.422 105.688 169.292 105.198 169.292 104.648C169.292 104.058 169.442 103.548 169.732 103.098C170.022 102.658 170.422 102.308 170.922 102.068C171.422 101.828 171.982 101.708 172.602 101.708C173.842 101.708 174.812 102.098 175.492 102.868V102.878ZM174.052 105.668C174.392 105.378 174.562 105.008 174.562 104.558C174.562 104.108 174.392 103.758 174.062 103.468C173.732 103.178 173.272 103.038 172.682 103.038C172.152 103.038 171.732 103.178 171.402 103.458C171.072 103.738 170.912 104.108 170.912 104.578C170.912 105.048 171.072 105.428 171.402 105.708C171.732 105.988 172.172 106.118 172.722 106.118C173.272 106.118 173.712 105.968 174.052 105.678V105.668Z" fill="#263238"/>
<path d="M232.802 107.478L234.472 58.248H236.812L239.582 107.478H232.802Z" fill="#263238"/>
<path d="M233.232 110.778L210.242 87.8681L211.802 86.1281L237.772 105.738L233.232 110.778Z" fill="#263238"/>
<path d="M220.782 118.008L274.482 87.498L221.912 119.648L220.782 118.008Z" fill="#14B8A6"/>
<path d="M243.312 107.478C243.312 111.408 240.122 114.598 236.192 114.598C232.262 114.598 229.072 111.408 229.072 107.478C229.072 103.548 232.262 100.358 236.192 100.358C240.122 100.358 243.312 103.548 243.312 107.478Z" fill="#14B8A6"/>
<path opacity="0.3" d="M243.312 107.478C243.312 111.408 240.122 114.598 236.192 114.598C232.262 114.598 229.072 111.408 229.072 107.478C229.072 103.548 232.262 100.358 236.192 100.358C240.122 100.358 243.312 103.548 243.312 107.478Z" fill="black"/>
<path d="M177.972 179.458C177.972 179.458 164.642 205.038 169.142 205.408C173.642 205.778 189.252 187.638 189.252 187.638C189.252 187.638 187.582 178.658 177.982 179.458H177.972Z" fill="#14B8A6"/>
<path d="M290.342 176.978C290.342 176.978 303.672 202.558 299.172 202.928C294.672 203.298 279.062 185.158 279.062 185.158C279.062 185.158 280.732 176.178 290.332 176.978H290.342Z" fill="#14B8A6"/>
<path d="M145.362 64.278C145.852 63.688 202.122 12.748 202.122 12.748C202.122 12.748 180.572 -5.91196 155.322 19.188C130.072 44.278 145.362 64.278 145.362 64.278Z" fill="#14B8A6"/>
<path d="M202.122 12.7481C204.392 15.2181 192.912 28.2981 177.342 42.5581C161.782 56.8181 147.332 66.3781 145.062 63.8981C142.792 61.4281 153.572 47.8581 169.142 33.5981C184.702 19.3381 199.852 10.2681 202.122 12.7381V12.7481Z" fill="#14B8A6"/>
<path opacity="0.3" d="M202.122 12.7481C204.392 15.2181 192.912 28.2981 177.342 42.5581C161.782 56.8181 147.332 66.3781 145.062 63.8981C142.792 61.4281 153.572 47.8581 169.142 33.5981C184.702 19.3381 199.852 10.2681 202.122 12.7381V12.7481Z" fill="black"/>
<path d="M165.82 20.6247L157.437 28.3062L177.07 49.7314L185.453 42.05L165.82 20.6247Z" fill="#14B8A6"/>
<path d="M157.702 28.3081C162.186 28.3081 165.822 24.6726 165.822 20.188C165.822 15.7035 162.186 12.0681 157.702 12.0681C153.217 12.0681 149.582 15.7035 149.582 20.188C149.582 24.6726 153.217 28.3081 157.702 28.3081Z" fill="#14B8A6"/>
<path opacity="0.4" d="M155.282 19.938L150.692 24.2581C150.042 25.0581 138.752 41.078 148.162 56.168C151.732 51.318 155.952 46.558 160.582 41.858C155.702 37.918 150.102 30.648 155.282 19.938Z" fill="white"/>
<path opacity="0.2" d="M165.452 37.0681L173.882 29.4281L175.762 31.4881L167.772 39.608L165.452 37.0681Z" fill="black"/>
<path opacity="0.3" d="M150.692 24.2581L162.162 13.4081L161.242 12.888L150.172 23.2081L150.692 24.2581Z" fill="black"/>
<path d="M263.782 12.0881C264.432 12.4881 322.932 60.858 322.932 60.858C322.932 60.858 338.302 36.848 309.842 15.468C281.382 -5.91196 263.782 12.0881 263.782 12.0881Z" fill="#14B8A6"/>
<path d="M322.932 60.858C320.812 63.458 306.222 53.9781 289.872 40.6181C273.522 27.2681 261.992 14.338 264.112 11.738C266.232 9.13805 281.202 17.858 297.552 31.208C313.902 44.558 325.052 58.248 322.932 60.848V60.858Z" fill="#14B8A6"/>
<path opacity="0.3" d="M322.932 60.858C320.812 63.458 306.222 53.9781 289.872 40.6181C273.522 27.2681 261.992 14.338 264.112 11.738C266.232 9.13805 281.202 17.858 297.552 31.208C313.902 44.558 325.052 58.248 322.932 60.848V60.858Z" fill="black"/>
<path d="M309.914 26.065L301.108 18.8727L282.726 41.3797L291.532 48.5721L309.914 26.065Z" fill="#14B8A6"/>
<path d="M310.362 25.9981C305.922 26.6381 301.812 23.5681 301.162 19.1281C300.522 14.6881 303.592 10.5781 308.032 9.92806C312.472 9.28806 316.582 12.3581 317.232 16.7981C317.872 21.2381 314.802 25.3481 310.362 25.9981Z" fill="#14B8A6"/>
<path opacity="0.4" d="M309.092 15.5381L304.152 11.6181C303.262 11.0881 285.792 2.21806 272.212 13.6981C277.522 16.5281 282.842 20.0281 288.162 23.9381C291.352 18.5381 297.752 11.9581 309.092 15.5381Z" fill="white"/>
<path opacity="0.2" d="M293.602 28.0581L302.372 35.298L300.612 37.4581L291.432 30.718L293.602 28.0581Z" fill="black"/>
<path opacity="0.3" d="M304.162 11.608L316.552 21.3981L316.932 20.418L305.122 10.9481L304.162 11.608Z" fill="black"/>
<path opacity="0.3" d="M176.152 48.7281C176.152 48.7281 182.392 43.1881 184.802 41.3381L184.012 40.4781L175.442 47.968L176.142 48.7381L176.152 48.7281Z" fill="black"/>
<path opacity="0.3" d="M283.382 40.6481C283.382 40.6481 289.832 45.9381 292.042 48.0381L292.762 47.1281L284.022 39.8381L283.372 40.6481H283.382Z" fill="black"/>
<path opacity="0.3" d="M52.4316 65.4481C52.4316 65.4481 101.412 72.0881 111.712 79.3081C122.012 86.5381 142.992 114.868 142.992 114.868C142.992 114.868 117.252 87.698 106.952 81.358C96.6516 75.018 52.4316 65.4481 52.4316 65.4481Z" fill="black"/>
<path opacity="0.3" d="M72.4616 78.9581C72.4616 78.9581 67.9616 93.0481 79.1116 92.6581C90.2716 92.2681 94.7716 87.3781 94.7716 87.3781C94.7716 87.3781 91.6416 100.298 100.052 100.098C108.472 99.8981 114.342 94.6181 114.342 94.6181C114.342 94.6181 102.202 104.968 96.3316 102.538C90.4616 100.098 92.9516 91.688 92.9516 91.688C92.9516 91.688 79.2016 98.368 73.5216 93.688C67.8416 89.008 68.9516 86.868 72.4516 78.968L72.4616 78.9581Z" fill="black"/>
<path opacity="0.3" d="M416.402 62.778C416.402 62.778 367.422 69.418 357.122 76.638C346.822 83.868 325.842 112.198 325.842 112.198C325.842 112.198 351.582 85.028 361.882 78.688C372.182 72.348 416.402 62.778 416.402 62.778Z" fill="black"/>
<path opacity="0.3" d="M396.372 76.298C396.372 76.298 400.872 90.388 389.722 89.998C378.562 89.608 374.062 84.718 374.062 84.718C374.062 84.718 377.192 97.638 368.782 97.438C360.362 97.238 354.492 91.9581 354.492 91.9581C354.492 91.9581 366.632 102.308 372.502 99.8781C378.372 97.4381 375.882 89.028 375.882 89.028C375.882 89.028 389.632 95.708 395.312 91.028C400.992 86.348 399.882 84.2081 396.382 76.3081L396.372 76.298Z" fill="black"/>
<path d="M205.582 26.278C205.432 26.278 205.282 26.188 205.232 26.028C205.162 25.838 205.262 25.618 205.452 25.548C221.022 19.818 238.482 18.778 254.612 22.638C254.812 22.688 254.942 22.8881 254.892 23.0881C254.842 23.2881 254.642 23.4081 254.442 23.3681C238.442 19.5381 221.142 20.568 205.712 26.248C205.672 26.268 205.622 26.268 205.582 26.268V26.278Z" fill="#14B8A6"/>
<path d="M259.182 24.658C259.182 24.658 259.112 24.6581 259.082 24.6481L256.612 23.9481C256.412 23.8881 256.292 23.688 256.352 23.488C256.412 23.288 256.612 23.1681 256.812 23.2281L259.282 23.9281C259.482 23.9881 259.602 24.188 259.542 24.388C259.492 24.558 259.342 24.658 259.182 24.658Z" fill="#14B8A6"/>
</svg>
